<svg width="1127" height="650" viewBox="0 0 1127 650" fill="none" xmlns="http://www.w3.org/2000/svg">
<g clip-path="url(#clip0_7_6388)">
<path d="M1119.96 549.35C1120.08 557.115 1119.42 563.879 1119.13 560.961C1119.92 576.765 1119.02 577.102 1120.55 579.157C1121.31 589.303 1120.26 600.124 1119.64 588.587L1120.57 617.835L1120.82 600.345C1122.09 605.108 1120.44 628.298 1121.92 633.84L1121.8 602.168L1122.22 603.749C1121.76 596.542 1121.95 582.528 1122.13 577.65C1122.34 578.419 1122.68 577.924 1122.72 583.519C1122.82 545.283 1120.49 573.214 1120.07 541.49C1120.1 543.481 1120.08 545.936 1119.95 549.339L1119.96 549.35Z" fill="#333333"/>
<path d="M1123.09 516.866L1121.49 503.528L1121.9 481.149C1121.34 480.896 1120.9 464.596 1120.41 475.638C1120.5 477.798 1120.67 482.065 1120.62 485.5C1119.42 483.003 1120.01 455.746 1118.81 462.32C1119.13 480.021 1118.87 482.729 1119.84 493.623C1119.72 509.849 1119.45 521.66 1119.01 529.236C1119.19 534.051 1119.93 534.725 1120.08 540.847C1120.07 539.488 1120.05 538.255 1120.04 536.696L1121.84 536.032C1121.46 530.932 1121.64 526.107 1121.59 520.449L1123.69 546.642C1125.38 538.192 1124.39 512.462 1125.08 502.179C1123.57 514.928 1124.33 492.022 1123.09 516.866Z" fill="#333333"/>
<path d="M22.4106 351.848C22.4422 357.411 22.8637 359.054 23.0849 359.866L23.0533 297.165C22.5792 299.135 21.9997 317.194 21.7152 305.119C21.1884 310.503 21.6415 326.898 22.2736 329.269L21.5572 324.727C22.4844 339.173 20.6721 349.045 20.1243 339.626V340.837L23.6855 380.854C23.8962 366.166 22.4633 369.538 22.4212 351.858L22.4106 351.848Z" fill="#333333"/>
<path d="M1023.07 630.563C1014.95 630.732 1013.95 630.9 1014.87 631.069C1017.78 630.942 1020.55 630.784 1023.07 630.563Z" fill="#333333"/>
<path d="M24.5073 390.2L25.6136 402.738C25.3186 397.722 24.9182 393.308 24.5073 390.2Z" fill="#333333"/>
<path d="M7.60718 303.37C7.54396 303.349 7.49128 303.212 7.41753 303.539L7.98648 309.165V309.018C7.84951 306.942 7.72308 305.088 7.60718 303.36V303.37Z" fill="#333333"/>
<path d="M58.1917 622.482C59.5404 622.461 60.6994 622.44 62.3114 622.408C60.8153 622.408 59.4561 622.45 58.1917 622.482Z" fill="#333333"/>
<path d="M1.26435 133.515L2.32851 161.394C1.82277 157.675 1.97028 171.13 1.38025 165.251C1.46454 167.379 1.66473 177.336 1.9176 174.617L1.88599 168.928C3.36107 183.626 3.93002 174.723 5.04687 199.104C5.92138 183.974 5.12062 177.336 4.4463 169.328C4.34094 166.61 4.29879 164.334 4.24611 162.027L2.18101 138.847L1.24328 133.515H1.26435Z" fill="#333333"/>
<path d="M634.622 638.929L634.314 639.046C634.601 639.003 634.643 638.971 634.622 638.929Z" fill="#333333"/>
<path d="M633.092 639.519L634.314 639.045C632.818 639.277 627.076 639.508 633.092 639.519Z" fill="#333333"/>
<path d="M23.5591 385.606C23.833 385.985 24.1702 387.597 24.5179 390.21L23.6855 380.854C23.6539 382.182 23.6117 383.931 23.5591 385.606Z" fill="#333333"/>
<path d="M20.335 364.323L20.1242 340.837L19.3551 332.187C19.6396 341.174 19.8398 351.69 20.3244 364.323H20.335Z" fill="#333333"/>
<path d="M30.65 621.618C32.4517 621.586 33.7055 621.597 34.6011 621.618C37.6355 621.65 39.3529 621.713 40.101 621.787C41.6077 621.945 39.2897 622.187 36.1604 622.44C35.7706 622.471 35.3597 622.503 34.9488 622.535L34.6432 622.556C34.5589 622.556 34.5589 622.577 34.5062 622.577L34.285 622.629C33.9794 622.693 33.6633 622.766 33.3683 622.83C32.7572 622.956 32.1777 623.093 31.7773 623.209C30.9871 623.451 30.9871 623.652 33.3051 623.757C35.9813 623.662 38.215 623.578 40.1853 623.504C42.6613 623.399 44.7896 623.262 46.7494 623.135C50.6794 622.872 53.9772 622.598 58.1917 622.471C38.8999 622.819 40.2064 622.145 41.4707 621.428C42.1029 621.07 42.7245 620.712 40.7648 620.459C39.7849 620.333 38.1518 620.238 35.5493 620.185C35.0647 620.175 34.5062 620.164 33.8319 620.143C33.4526 620.143 33.0101 620.153 32.4833 620.185C32.9996 619.816 33.5685 619.521 34.1059 619.311C34.2323 619.268 34.3693 619.216 34.5062 619.163L34.6011 619.131C34.6011 619.131 34.7696 619.121 34.8539 619.11H35.1806C35.6231 619.079 36.0656 619.058 36.5292 619.037C38.352 618.963 40.2801 618.91 42.282 618.868C50.2579 618.699 59.1927 618.763 65.7884 618.963C80.7288 620.396 52.734 620.016 49.3413 621.418C64.956 621.186 62.2061 620.923 68.8334 620.122C93.3512 620.459 119.565 618.362 134.2 620.343C151.943 620.027 150.784 619.342 160.983 618.584C163.017 617.045 134.59 617.772 128.016 616.571C129.375 616.698 132.03 616.961 131.261 617.172L115.92 616.845C130.481 617.382 113.897 618.383 106.111 618.499C100.453 618.531 89.1999 618.605 90.7488 618.173L99.3253 617.846C88.2833 617.361 74.976 618.963 63.3229 618.13C62.7118 617.783 67.1265 617.625 67.7903 617.414C61.2578 617.941 54.8517 618.183 47.6555 618.394C44.0521 618.489 40.259 618.594 36.1604 618.71C35.6547 618.72 35.1384 618.742 34.6221 618.752L34.4114 618.794C34.2639 618.826 34.1059 618.858 33.9584 618.9C33.6001 618.973 33.2314 619.058 32.8415 619.142C33.7582 618.636 34.3377 618.13 34.5905 617.614C34.3166 618.078 33.558 618.383 32.5992 618.552C32.4833 618.162 32.4306 617.583 32.4095 616.961C32.4095 615.496 32.4095 614 32.4201 612.483C32.4411 609.975 32.4727 607.436 32.4938 604.897C32.6202 594.74 32.8942 584.53 33.2208 575.743C32.9574 578.44 32.7783 583.287 32.4833 580.379C32.1145 566.124 33.1681 555.366 33.9689 561.962C32.7045 548.043 35.0331 508.922 33.3894 489.946L25.6452 402.717C25.8349 405.983 25.9929 409.481 26.0667 413.084C24.7286 421.008 24.8866 425.285 23.6328 411.388C24.3388 425.033 25.4135 419.817 25.4661 440.31C24.7918 432.271 23.2535 430.238 23.0955 449.877C24.4336 498.965 28.2372 531.491 30.1758 577.334C29.6596 578.177 29.4699 587.596 29.3856 598.997C29.354 604.644 29.3329 610.787 29.3013 616.603C29.2803 618.404 29.2486 620.132 29.1854 621.555C28.6375 621.028 28.2793 619.448 28.0264 617.277L27.9843 616.866L27.9632 616.655V616.55L27.9422 616.297C27.9211 615.549 27.8895 614.791 27.8684 614.021C27.8263 612.483 27.7841 610.903 27.742 609.301C27.6787 606.088 27.6155 602.748 27.5418 599.376C27.4996 605.403 27.4364 615.791 27.3943 623.493L27.6998 623.451C28.8272 622.83 29.8176 622.208 30.671 621.586L30.65 621.618Z" fill="#333333"/>
<path d="M26.0878 523.641C25.9929 524.864 25.9403 526.138 25.8981 527.445C25.9824 526.75 26.0456 525.622 26.0878 523.641Z" fill="#333333"/>
<path d="M27.5628 595.298C27.5207 595.13 27.4891 595.183 27.4469 595.13C27.468 596.542 27.4996 597.954 27.5312 599.408C27.5418 597.954 27.5523 596.331 27.5628 595.298Z" fill="#333333"/>
<path d="M21.2306 397.101C20.9355 394.193 20.8513 392.033 20.5562 389.125C20.63 390.916 20.7354 393.171 20.8196 395.341C20.9566 397.406 21.1041 398.386 21.22 397.111L21.2306 397.101Z" fill="#333333"/>
<path d="M23.0428 387.281L23.4642 388.84C23.4959 387.587 23.5275 386.712 23.5591 385.595C23.3273 385.258 23.1376 385.616 23.0428 387.281Z" fill="#333333"/>
<path d="M206.985 630.932L211.652 630.711C208.85 630.732 207.638 630.816 206.985 630.932Z" fill="#333333"/>
<path d="M75.2921 623.367C58.3814 623.462 73.2691 624.905 49.3307 624.916L56.3584 625.011C51.3221 625.2 45.1689 625.316 38.4784 625.38C36.1499 625.401 33.7371 625.422 31.2716 625.443C29.4488 625.443 27.5945 625.443 25.7401 625.443C25.7401 618.246 25.7611 611.092 25.7611 605.129C26.3722 607.426 26.5092 592.749 27.4575 595.14C27.2362 581.19 27.0255 567.377 26.0351 560.192C26.3617 551.552 25.4872 538.424 25.8981 527.445C25.3186 532.081 23.9489 511.809 24.6548 538.54C24.5811 536.38 24.4441 537.739 24.3598 535.6C23.5591 552.816 24.9182 559.728 24.9393 574.563C24.3704 583.435 24.0227 560.055 23.7909 568.431C24.0543 577.692 23.8857 592.222 23.9173 604.286C23.9384 607.299 23.97 610.165 23.9911 612.747C24.0227 614.043 24.0437 615.265 24.0753 616.403C24.107 617.224 24.1491 617.772 24.2018 618.362C24.402 620.649 24.7181 621.755 25.2554 621.302C25.2975 623.241 25.287 624.726 25.2554 625.906C28.469 626.001 29.2592 626.328 30.8712 626.623C31.7036 626.475 32.5676 626.359 33.4842 626.254C33.7055 626.233 33.9373 626.201 34.1691 626.18C34.4114 626.159 34.5695 626.138 35.0752 626.117C35.9286 626.085 36.8137 626.043 37.7198 626.001C41.3443 625.864 45.348 625.79 49.552 625.769C57.9705 625.706 67.1897 625.811 75.7346 625.896C92.8349 626.064 107.238 626.149 107.143 624.695C99.3569 624.811 86.6712 624.747 75.2499 625.369L75.3132 623.367H75.2921Z" fill="#333333"/>
<path d="M21.3781 425.517C21.3781 426.56 21.357 427.94 21.3465 428.804C21.3465 427.835 21.3675 426.623 21.3781 425.517Z" fill="#333333"/>
<path d="M29.8176 212.032L31.7247 219.101C32.1777 259.381 31.6404 273.953 31.7247 309.176C31.4613 311.863 31.3032 307.595 31.2189 305.425C31.4402 330.185 31.0398 367.241 31.9143 385.258C31.9038 393.139 31.2927 413.822 30.7343 405.993C30.9028 409.829 31.0609 414.212 31.0082 418.616C30.3233 419.785 30.808 408.754 30.2496 408.501C30.2074 411.999 30.0705 413.358 30.2917 414.159C29.7017 408.28 27.9738 420.26 28.0159 392.834C29.6174 382.213 28.2056 411.862 29.9651 405.593C29.9756 396.49 29.2908 397.554 29.0801 396.774C29.1222 385.184 29.5647 385.479 29.9651 386.101C29.4172 381.655 30.1758 367.073 29.3435 360.94C29.2065 338.393 30.671 362.163 30.65 347.443L28.8588 338.951L29.196 314.465C28.5638 279.021 26.1088 319.533 25.0974 279.021C26.0245 284.342 27.5945 268.095 27.9738 249.246C28.037 260.53 29.2065 281.381 28.6691 295.942C30.0705 275.407 28.8377 324.2 30.4392 313.548C29.6806 303.402 29.5753 286.481 29.9862 273.289L30.1548 277.62C30.3444 263.585 28.4795 252.965 29.1854 233.599C29.1327 223.98 29.6279 225.781 30.0494 227.467C29.786 219.333 29.4278 212.053 29.8281 212.021L29.8176 212.032ZM30.1864 232.988L30.0073 245.863C30.3023 242.808 30.2917 238.003 30.1864 232.988Z" fill="#333333"/>
<path d="M1122.86 336.833C1122.81 338.108 1122.75 339.583 1122.71 340.742C1122.8 339.889 1122.83 338.403 1122.86 336.833Z" fill="#333333"/>
<path d="M292.486 7.7231L299.946 7.78632C297.038 7.7231 294.646 7.71257 292.486 7.7231Z" fill="#333333"/>
<path d="M459.823 1.82276L470.718 1.40131C466.419 1.42238 463.047 1.59096 459.823 1.82276Z" fill="#333333"/>
<path d="M1122.99 247.939V247.57C1122.96 246.959 1122.94 246.496 1122.9 245.853L1122.99 247.939Z" fill="#333333"/>
<path d="M795.445 5.99512C797.11 6.14262 798.964 6.2796 801.514 6.38496C801.208 6.20584 798.943 6.07941 795.445 5.99512Z" fill="#333333"/>
<path d="M457.821 1.89655C458.095 1.90708 458.253 1.91762 458.475 1.92815C458.896 1.89655 459.36 1.8544 459.823 1.81226L457.821 1.88601V1.89655Z" fill="#333333"/>
<path d="M218.775 2.50763C217.173 2.57085 215.719 2.62353 214.002 2.68675C216.257 2.65514 217.626 2.58138 218.775 2.50763Z" fill="#333333"/>
<path d="M229.29 7.57556C227.573 7.61771 225.929 7.68092 224.654 7.75468L229.29 7.57556Z" fill="#333333"/>
<path d="M4.85722 62.4273L5.11009 72.4578C5.07848 67.5269 4.98365 64.5767 4.85722 62.4273Z" fill="#333333"/>
<path d="M202.728 6.40607C202.149 6.49036 201.559 6.56411 201.169 6.6484C202.559 6.59572 203.213 6.49036 202.728 6.40607Z" fill="#333333"/>
<path d="M1117.54 400.62C1117.54 400.388 1117.54 400.146 1117.54 400.009L1117.33 399.756L1117.54 400.62Z" fill="#333333"/>
<path d="M1120.14 425.032C1120.19 427.909 1120.24 430.901 1120.29 433.851C1120.3 430.575 1120.25 427.382 1120.14 425.032Z" fill="#333333"/>
<path d="M941.246 8.87155C943.901 9.13495 950.138 9.4405 947.23 9.73552C952.319 9.36675 951.982 8.46063 941.246 8.87155Z" fill="#333333"/>
<path d="M1106.36 351.69C1106.6 353.291 1106.78 355.283 1106.97 357.274C1106.71 353.555 1106.5 350.299 1106.36 351.69Z" fill="#333333"/>
<path d="M1106.97 357.274C1107.11 359.107 1107.26 361.077 1107.37 362.721C1107.26 360.803 1107.12 358.97 1106.97 357.274Z" fill="#333333"/>
<path d="M873.635 23.696C872.971 23.5696 871.949 23.4748 870.558 23.4432C870.969 23.6855 872.075 23.7382 873.635 23.696Z" fill="#333333"/>
<path d="M1120 440.974C1120.43 442.554 1121.35 480.896 1121.57 448.644C1122.9 449.888 1122.18 469.337 1122.51 477.935C1122.83 471.687 1123.36 481.043 1123.84 479.147C1123.68 474.88 1123.3 469.812 1123.4 462.763C1124 459.518 1124.41 470.222 1124.19 478.578C1124.88 468.284 1125.24 491.632 1125.78 477.071C1125.31 445.936 1124.83 423.937 1122.89 402.042C1123.21 419.785 1123.61 439.646 1123.07 454.197L1121.92 448.075C1122.93 431.628 1122.17 421.471 1122.28 405.288L1121.67 441.638C1120.71 458.664 1120.5 447.275 1120.29 433.851C1120.28 437.149 1120.2 440.141 1120 440.974Z" fill="#333333"/>
<path d="M1109.94 416.477L1109.91 417.088C1109.95 417.625 1109.97 418.279 1110.03 418.616L1109.94 416.477Z" fill="#333333"/>
<path d="M28.058 60.5729L28.49 63.6916C28.2898 61.0892 28.1634 60.2779 28.058 60.5729Z" fill="#333333"/>
<path d="M1115.49 394.807V394.839C1115.48 394.593 1115.48 394.529 1115.49 394.807Z" fill="#333333"/>
<path d="M51.006 27.3943C50.8901 27.4259 50.7847 27.4575 50.5846 27.4891C50.869 27.4575 50.869 27.4154 51.006 27.3943Z" fill="#333333"/>
<path d="M71.773 2.67623C71.6255 2.62355 71.5833 2.57087 71.2462 2.51819C69.5814 2.58141 70.3927 2.63409 71.773 2.67623Z" fill="#333333"/>
<path d="M51.0586 27.2784C51.0586 27.2784 51.1112 27.352 50.9955 27.3836C51.0586 27.3415 51.1849 27.3099 51.0586 27.2784Z" fill="#333333"/>
<path d="M428.805 23.0744C428.805 23.0744 427.614 22.8742 425.728 22.6846C425.001 22.7899 425.728 22.9164 428.805 23.0744Z" fill="#333333"/>
<path d="M354.239 21.3781C353.765 21.3359 353.491 21.3043 352.88 21.2516L354.239 21.3781Z" fill="#333333"/>
<path d="M923.619 3.70875C919.931 3.68768 917.16 3.71929 914.821 3.77197C917.508 3.80358 920.426 3.79304 923.619 3.70875Z" fill="#333333"/>
<path d="M50.5846 27.4891C49.8049 27.605 48.6986 27.7314 46.8653 27.8895C48.8777 27.7209 49.9418 27.5944 50.5846 27.4891Z" fill="#333333"/>
<path d="M542.501 17.2795C541.711 17.3216 540.963 17.3638 540.215 17.4059C540.668 17.427 541.132 17.4481 541.574 17.4586L542.501 17.2795Z" fill="#333333"/>
<path d="M581.412 18.1224C580.084 18.2488 579.473 18.3858 578.725 18.5017C592.612 18.0275 618.131 18.5438 621.154 17.3216C616.445 17.3532 592.001 16.6368 596.173 15.9203C586.49 16.2258 572.182 15.3724 566.966 15.5726C582.855 16.2364 568.684 16.6051 557.958 17.0161C548.201 16.6578 559.791 16.0362 551.394 15.8044L528.815 15.9414L548.486 16.0994L542.512 17.2689C543.239 17.2268 543.734 17.1952 544.514 17.153C577.787 16.6051 547.337 18.8704 581.422 18.1118L581.412 18.1224Z" fill="#333333"/>
<path d="M578.725 18.5122C576.639 18.586 574.816 18.6808 573.393 18.7967C576.533 18.7756 577.756 18.6597 578.725 18.5122Z" fill="#333333"/>
<path d="M714.674 20.4403C716.381 20.3876 718.235 20.3244 720.564 20.2507C719.458 20.2823 716.887 20.3666 714.674 20.4403Z" fill="#333333"/>
<path d="M19.5553 315.498C19.903 314.918 20.6089 295.531 19.7133 295.879C19.6185 301.632 19.5237 307.427 19.4288 313.253L19.5553 315.508V315.498Z" fill="#333333"/>
<path d="M1085 15.2038C1082.84 15.1722 1080.67 15.1616 1078.51 15.1827C1078.05 15.2354 1077.6 15.2881 1077.25 15.3197C1078.56 15.4567 1082.84 15.2881 1085 15.2038Z" fill="#333333"/>
<path d="M602.157 15.5093C598.607 15.6463 597.016 15.7938 596.162 15.9308C598.459 15.857 600.588 15.7411 602.157 15.5093Z" fill="#333333"/>
<path d="M1086.22 17.3427C1088.97 17.5955 1093.03 17.9959 1093.6 18.3331C1095 18.3331 1096.33 18.312 1097.55 18.2593C1098.69 18.1961 1099.78 18.1434 1100.89 18.0802C1103.11 17.9432 1105.42 17.7852 1108.16 17.7009C1105.1 17.7641 1101.87 17.7746 1098.36 17.722C1096.5 17.6798 1094.57 17.6377 1092.56 17.585C1090.52 17.5112 1088.42 17.4269 1086.24 17.3427H1086.22Z" fill="#333333"/>
<path d="M1108.6 17.6904C1108.45 17.6904 1108.3 17.7009 1108.16 17.7114C1108.32 17.7114 1108.45 17.7009 1108.6 17.6904Z" fill="#333333"/>
<path d="M19.1756 327.035C19.2388 328.699 19.302 330.417 19.3652 332.187L19.1229 329.5C19.0281 333.957 18.9438 338.393 18.849 342.839C18.9016 344.451 18.9649 346.19 18.9965 348.328C18.9649 347.464 18.87 346.801 18.7752 346.379C18.7436 347.823 18.7015 349.235 18.6699 350.657C19.6076 361.277 20.2819 387.702 20.8298 395.331C21.2302 405.414 21.462 417.762 21.3882 425.507C21.4093 418.331 21.2196 408.796 20.7033 411.662C20.166 426.233 18.6172 433.314 19.9447 458.464L19.9237 443.713L21.9256 476.881C21.0932 488.503 20.9246 460.329 20.2081 455.724C21.1986 481.517 18.554 502.969 20.2924 514.928C19.2599 516.613 17.5425 519.437 17.6478 536.369C18.8174 524.168 18.4064 546.515 19.6603 536.506C20.2503 542.354 19.2915 555.387 20.0606 556.356L19.6287 554.776C17.9955 583.677 20.5558 593.138 21.3882 605.508C21.4303 610.702 21.4725 615.433 21.5146 619.806C21.5146 623.356 21.5146 626.612 21.5146 629.646C28.89 629.71 35.3804 629.762 42.0077 629.815C49.9941 629.878 58.1387 629.91 67.7161 629.857C68.8224 630.542 76.5139 632.439 87.8298 632.375C93.098 631.438 118.638 631.016 121.24 629.815C101 629.32 104.677 630.816 92.5606 631.1C82.4774 629.847 91.644 629.857 77.8731 629.109C88.9888 629.594 128.11 628.456 140.29 629.636L135.991 629.805C155.43 630.521 159.15 633.471 191.528 631.68L206.984 630.953C206.236 631.069 206.152 631.216 205.762 631.322C231.06 631.448 224.148 632.807 252.08 631.733C249.92 631.817 251.279 631.943 249.087 632.028C265.008 632.702 281.054 631.353 293.097 631.069C300.441 632.059 291.359 632.049 286.807 632.765C314.812 633.155 345.03 631.438 362.426 630.226L380.474 630.816C369.769 631.227 356.683 632.281 359.95 632.881C369.875 632.681 367.957 632.207 381.992 632.407C379.6 633.039 373.71 633.64 367.104 634.44C396.142 635.505 373.594 632.186 393.908 634.135C403.032 634.145 408.332 633.218 409.323 632.449L425.854 633.461C427.687 632.481 448.096 632.428 461.467 632.28C463.1 631.859 450.698 631.237 445.631 631.617C446.632 630.848 460.855 630.479 470.001 630.5C473.351 632.554 529.9 630.205 519.089 632.628C560.191 631.964 617.919 631.754 645.04 630.89C653.985 631.459 672.213 631.49 661.287 632.449C694.37 632.449 711.429 630.352 744.26 630.911C746.978 631.164 729.414 630.932 730.584 631.617C752.046 630.795 769.631 632.491 802.925 631.933C797.32 631.975 795.687 632.396 794.907 632.607C794.328 632.27 808.552 631.901 817.16 631.575C822.007 631.754 810.712 631.817 813.43 632.08C877.754 633.081 926.758 630.289 990.745 630.373C972.475 630.342 965.574 631.712 965.373 632.259L983.275 632.28C990.176 631.606 1003.61 631.606 1014.85 631.09C1016.23 631.343 1021.7 631.617 1016.12 631.943C1051.48 633.324 1071.35 629.457 1114.67 630.163L1062.2 632.913L1075.18 633.871L1052.12 635.125C1065.9 635.884 1077.88 634.135 1079.53 635.167C1076.63 635.462 1069.61 635.368 1069.39 635.926C1082.61 636.326 1083.65 635.557 1093.6 635.357C1067.4 637.454 1016.03 637.422 988.385 637.938C984.033 638.107 992.104 637.433 992.873 637.222C981.589 637.296 974.825 636.632 960.622 637.001C951.803 637.886 967.354 637.654 974.35 637.749C973.392 638.518 969.862 638.476 962.076 638.592C960.379 637.559 919.288 638.223 909.236 636.969C867.587 637.296 915.895 639.635 875.246 639.182L863.098 638.002C839.497 638.908 808.973 639.719 782.264 639.466L787.89 639.424C791.641 638.918 785.446 638.613 782.696 638.349C762.508 637.844 744.376 639.277 732.143 638.096C709.121 639.35 670.748 640.278 644.429 640.92C637.327 639.371 678.766 639.603 689.713 638.634H665.754C680.557 638.623 686.405 638.033 695.287 637.148C674.288 636.864 667.387 638.223 647.484 638.613C649.033 638.191 646.378 637.928 637.19 637.917L634.588 638.95C634.419 638.866 633.397 638.792 630.563 638.718L595.151 639.35C602.663 639.793 603.032 640.688 612.177 640.699C608.911 640.098 616.666 639.982 625.832 639.993C617.814 640.667 634.756 640.562 634.567 641.12C616.213 641.089 593.654 641.236 581.622 641.51L577.713 640.562C560.223 640.32 541.742 640.846 529.878 640.573L533.619 640.067C512.631 639.782 491.969 640.393 473.33 639.466C454.607 640.551 431.038 641.458 415.739 642.585C407.552 643.807 360.803 641.047 339.699 642.775C338.277 642.648 354.197 641.858 361.393 641.394C347.359 641.205 336.19 642.732 331.786 641.436C363.29 641.868 330.09 640.404 344.282 640.046C329.532 640.067 313.98 640.299 306.742 640.762C330.617 640.762 298.26 642.543 322.43 641.984C303.697 643.07 278.146 643.502 255.83 643.08C256.052 642.522 253.302 642.269 244.978 642.037L238.267 642.848C227.825 642.701 258.454 641.89 237.434 641.605C215.803 642.985 172.299 640.825 162.827 643.375C146.338 642.364 194.193 642.353 169.349 641.12C183.805 640.193 203.739 641.257 208.502 639.982C194.33 640.341 203.328 638.908 194.193 638.897L178.389 639.688L181.887 639.74C155.378 640.941 113.359 640.362 79.5062 640.573C68.2956 641.078 58.4548 641.658 48.5507 642.185C46.0747 642.311 43.5986 642.437 41.091 642.564C39.8372 642.627 38.5834 642.68 37.3085 642.743C36.6763 642.775 36.0336 642.796 35.4014 642.827C34.5796 642.859 33.7472 642.88 32.9254 642.912C25.0759 643.122 16.7312 643.291 7.75429 643.417C7.71215 638.581 7.65946 633.524 7.60678 628.235C7.60678 623.483 7.59625 618.52 7.58571 613.315C8.33378 623.472 8.31271 584.741 9.69296 606.403C10.0301 598.449 9.99851 590.536 9.80886 584.583C9.62974 578.63 9.29258 574.616 9.0081 574.458C8.81845 588.46 8.82899 579.389 8.55505 591.179C7.88072 583.213 7.91233 564.859 8.35486 557.315C8.30218 560.813 8.43915 559.486 8.64987 560.255C9.10293 543.534 7.97555 552.237 7.70161 540.151C8.64987 536.316 7.95448 513.463 8.43915 502.432L7.09051 486.427C7.97555 495.225 7.41713 471.097 8.22842 468.568C7.60678 457.094 6.51101 447.464 6.74281 429.995C7.20641 437.212 7.40659 414.054 8.30218 413.748C9.16615 383.825 5.85776 364.186 7.14319 335.854C7.35391 336.739 7.94394 342.449 8.1652 334.168C7.91233 327.646 8.0177 316.214 7.92287 309.239L7.94394 309.46C7.94394 309.323 7.93341 309.239 7.92287 309.091C7.87019 305.678 7.76483 303.528 7.54357 303.433C6.66906 291.485 5.76294 285.322 5.0254 261.805C3.99285 263.533 4.39322 283.383 4.73038 291.981L5.74187 299.409C4.19304 306.51 6.00527 320.618 5.489 326.023C3.66622 311.915 4.11928 271.287 3.00244 246.917C1.56951 261.773 1.34825 294.109 1.51683 322.314L2.13847 309.892L2.15954 324.654L3.25531 310.366C3.06566 324.348 3.3396 336.433 3.28692 349.066C3.26585 334.273 4.68824 328.51 4.45644 336.886C3.44496 353.375 5.12023 354.06 5.05701 366.662C5.15184 359.644 5.17291 350.52 5.7524 356.41C4.51966 381.254 5.32042 387.966 4.00338 410.566C5.72079 407.763 4.17196 438.793 5.58382 442.185L5.73133 431.702L6.76388 453.944C5.36256 474.468 5.34149 435.769 4.35108 466.998C4.1825 495.815 5.9842 495.067 6.11063 517.73C5.09915 510.26 4.22464 492.296 4.25625 474.015L3.77159 485.078C3.18156 479.22 3.30799 453.933 3.37121 441.321C4.54073 462.173 3.72944 431.565 4.64609 422.072C3.66622 420.333 3.81373 433.714 3.02351 417.91C3.04458 432.713 3.12887 434.884 2.74957 453.723C3.19209 413 -0.664178 417.109 0.168186 381.56C0.610709 397.944 1.59058 375.849 2.06471 373.879C1.94881 366.166 1.71702 350.531 1.46415 344.103L0.0417512 349.93C-0.569352 329.216 2.43348 322.03 0.968942 298.134C0.115505 295.026 0.684463 319.154 0.515883 314.855C-0.379699 282.15 1.90667 270.371 2.98137 241.333C2.55992 239.689 1.6538 240.026 0.905724 229.88C1.75916 233.072 2.19115 225.549 2.82332 236.981C3.18156 227.277 2.55992 215.772 2.22276 207.206C1.72755 227.414 1.00055 198.935 0.484274 195.216C0.631782 184.743 1.33771 198.408 1.58004 204.846C1.81184 196.448 3.06566 186.46 1.79077 181.687C2.68635 181.36 4.15089 205.183 4.38269 220.755L4.5302 210.251C4.98326 217.489 4.85682 218.838 4.71985 229.269C5.41524 219.059 6.18439 220.071 6.8271 222.452C6.70066 223.79 6.61637 221.704 6.48994 222.989C6.25814 231.387 6.51101 237.824 6.98514 235.875C8.18628 243.43 7.74375 224.232 8.34432 218.543C8.26003 214.244 8.18628 209.945 8.10199 205.731L4.23518 162.111C3.78212 143.472 4.70931 135.096 5.29934 121.104L4.26679 117.258C4.37215 101.043 4.69878 85.7439 6.01581 96.1327C5.66811 96.7122 5.7524 98.8616 5.69972 102.381C5.83669 102.844 5.94205 103.656 6.02634 104.678C6.08956 105.015 6.14224 105.204 6.20546 105.478C5.85776 88.1146 5.6365 77.2728 5.61543 76.2719C7.12212 105.752 7.49088 77.7469 9.33473 82.6779L8.73416 52.9024C8.15467 70.951 7.83858 53.2291 7.58571 46.823C8.03877 46.0433 8.09145 41.3126 8.0177 35.3701C7.92287 26.3827 7.80697 15.5514 7.71215 7.03813C10.146 7.03813 12.3692 7.03813 14.3289 7.03813L13.2964 7.24886C17.0999 7.34368 21.5357 7.39637 26.3613 7.43851C30.3967 7.44905 34.7693 7.47012 39.2366 7.48066C46.1906 7.47012 53.4395 7.36476 59.4768 7.22779C58.9289 6.88009 74.3961 5.19429 81.8242 4.18281C61.131 3.79297 73.4162 3.38205 71.7515 2.73934C73.8904 2.80256 77.7466 2.81309 78.1892 2.67612C81.1498 2.38111 74.1643 2.28628 73.5848 1.93859C62.585 2.18092 51.4271 2.33896 41.9023 2.61291C39.5211 2.6972 37.2347 2.77095 35.0853 2.8447C31.3976 2.95007 27.9312 3.04489 24.7387 3.13972C18.1746 3.36098 12.896 3.64546 9.32419 4.00369C15.4247 4.33032 20.1871 4.17227 25.3077 3.99316C27.8575 3.89833 30.481 3.8035 33.2942 3.75082C33.8842 3.75082 34.4742 3.72975 35.0748 3.72975C35.4963 3.72975 35.9177 3.72975 36.3497 3.72975C37.2137 3.72975 38.1198 3.76136 39.0575 3.82458C38.2884 3.88779 37.4981 3.95101 36.6974 4.01423C36.297 4.04584 35.8861 4.06691 35.4857 4.09852L34.8641 4.14066L33.9896 4.17227C31.1342 4.24603 28.163 4.31978 25.0759 4.40407C18.9333 4.51997 12.3692 4.58319 5.24666 4.60426C5.24666 14.5821 5.23613 25.7294 5.22559 38.1306L4.36162 44.1257L4.82521 62.522C4.37215 54.8411 3.46603 59.4665 3.28692 40.1746C2.47563 42.6401 3.47657 59.3085 3.20263 71.1196L4.35108 77.1569C3.70837 74.8284 3.59247 100.115 2.71796 82.1511L1.78023 52.9235L1.00055 61.047L0.779289 36.3395L1.36932 42.166C1.32717 39.7427 1.29557 37.5827 1.26396 35.6335C1.25342 32.4621 1.24288 29.6595 1.23235 27.1518C1.23235 21.2199 1.28503 16.7842 1.35878 13.3704C1.50629 6.54293 1.75916 3.84565 2.00149 1.36963C5.13076 1.63303 7.98609 1.87537 14.7082 1.97019C18.0693 2.02288 22.3892 2.02288 28.2473 1.98073C31.0078 1.95966 35.2223 1.91751 36.5709 1.86483C38.6044 1.80161 40.8908 1.7384 43.4511 1.65411C55.9998 0.179032 69.4441 0.0315241 93.9303 0.368684C76.2083 0.674236 92.1076 1.34856 85.4381 2.14931C103.518 2.7288 109.619 1.58035 118.996 1.043C123.6 1.78054 126.877 2.38111 110.725 2.26521C108.702 3.8035 131.966 2.0018 133.441 3.58224C186.934 3.5401 176.303 -1.52784 238.835 0.452974L236.496 1.08515C276.208 0.29493 299.113 1.05354 335.885 0.5478L364.839 2.17038C358.359 2.42325 340.953 3.63492 349.076 4.41461C334.989 2.77095 320.049 3.35044 304.877 2.4654C303.328 2.89738 309.513 3.20294 312.199 3.46634C303.043 3.45581 298.45 2.71827 286.354 3.00275C286.944 3.33991 300.135 3.75082 290.189 3.95101L273.742 2.93953C251.732 3.4242 262.9 5.36287 237.044 4.89927C241.849 3.99316 251.669 2.6972 261.678 2.47593C249.867 2.28628 277.43 1.92805 266.641 1.3907C249.625 2.72881 241.406 1.66464 218.774 2.50754C221.43 2.31789 222.135 2.05448 227.699 1.98073L194.868 1.42231C202.991 2.20199 167.747 2.27575 170.792 3.44527C205.783 3.92994 195.5 3.22401 235.38 3.88779C224.085 4.1512 209.534 5.33126 202.717 6.41649C202.369 6.37435 201.79 6.3322 200.568 6.31113C194.478 7.45958 200.684 7.76513 200.568 9.77756C218.774 8.34463 230.944 9.52469 252.406 8.70286C256.442 7.60709 239.952 7.30154 229.279 7.58602L248.192 6.85902L244.472 7.36476L292.486 7.73353C283.393 7.79674 280.306 8.42892 275.554 8.91359C281.75 8.95573 287.882 9.25075 294.404 9.56683C293.034 8.51321 293.898 7.77567 299.935 7.79674C330.828 8.04961 348.002 8.98734 359.391 10.1885C360.582 10.1674 361.92 10.1358 362.995 10.1147C357.811 9.04002 384.931 8.17605 394.498 7.08028C394.024 8.19712 410.418 7.74406 419.322 8.31302C424.063 7.03813 417.741 5.27858 406.899 4.23549C386.016 5.40501 395.193 5.41555 385.332 7.06974L351.826 8.17605L359.318 7.15403C342.597 6.70097 326.529 8.04961 327.761 6.72204C336.601 5.837 351.184 6.37435 359.95 5.4893L348.887 5.00464C368.4 3.69814 358.886 6.25845 382.518 5.35233C373.826 4.22495 384.657 5.26804 394.783 4.51997C386.659 3.74029 353.175 4.84659 360.276 2.92899C372.562 2.09663 401.621 5.17322 417.878 3.26615L417.077 3.48742C441.058 3.72975 449.487 2.64452 458.474 1.95966C468.684 2.5813 482.771 1.70679 493.834 1.63303L493.56 2.19146L509.164 1.95966C501.736 2.97114 490.873 1.92805 477.471 2.07556L479.136 3.10811C463.679 1.87537 453.375 3.74029 441.395 4.63587C458.832 3.74029 490.652 4.88874 494.751 2.86578L505.54 3.90887L510.702 3.52956C518.742 4.30924 510.534 5.54198 494.94 5.77378C492.232 5.51038 490.873 5.38394 491.695 5.16268C484.457 5.62627 477.819 6.42703 460.308 6.1847L469.653 5.63681C447.854 5.56306 428.035 5.96343 420.565 6.97492C452.037 7.4069 482.992 7.50173 512.536 7.44905C521.249 5.11 531.596 3.8035 536.042 1.63303C555.871 1.23266 582.792 0.937642 600.008 1.72786L598.427 2.14931C606.825 2.37057 614.569 2.25467 621.028 2.01234C629.91 2.5813 614.948 3.16079 621.144 3.46634L649.539 2.73934C647.79 3.71921 623.883 3.72975 612.535 3.79297C614.674 3.70868 619.005 3.55063 617.614 3.41366C604.412 3.01328 579.82 4.67801 574.046 3.25562C567.609 3.49795 587.111 2.20199 565.333 2.12824C550.751 1.59089 546.009 2.86578 544.482 3.29776C544.239 3.85618 567.366 4.05637 559.338 4.73069C570.685 4.65694 575.205 3.94047 589.724 4.47782C578.472 4.54104 563.205 5.67896 557.209 4.81498C534.967 5.85807 538.16 8.47106 548.644 8.60803C546.146 7.78621 589.219 7.59655 560.054 6.53239C573.151 5.47877 597.089 5.46823 614.221 4.81498L613.441 5.02571L634.714 4.7623C631.711 5.05732 625.284 5.29965 625.073 5.85807L654.543 4.36192C637.959 5.36287 664.827 5.05732 672.371 5.49984C675.521 4.6464 687.037 4.02476 675.995 3.5401C663.584 2.91846 668.767 4.00369 657.483 4.06691L673.467 2.71827L674.836 2.8447L684.456 1.74893C706.234 1.82269 674.942 4.29871 702.842 3.22401L699.217 1.72786C731.521 1.94912 773.003 3.63492 795.824 2.93953C789.534 3.79297 786.752 5.16268 795.413 5.97397C785.572 5.7211 765.796 5.77378 751.677 5.91075C748.959 5.64735 769.315 4.14066 784.645 4.46729C777.217 2.01234 746.072 5.9529 744.27 3.46634C705.202 2.60237 715.127 5.85807 681.959 4.40407C681.506 5.51038 672.529 4.95195 670.79 5.92129C680.61 7.73353 715.127 5.85807 736.652 6.49025C734.545 6.57454 730.31 6.73258 729.477 6.94331C744.86 7.26993 751.214 7.0276 761.971 6.60615L760.612 6.47971C779.388 5.39448 772.233 7.31208 783.286 7.79674C787.574 7.62816 802.936 7.95479 800.46 7.13296L820.479 8.18658L819.52 6.94331C830.815 6.86955 833.28 7.69138 843.511 6.94331L843.985 5.837L815.948 5.44716C830.162 5.08893 819.91 4.383 835.525 4.1512C818.087 5.36287 847.863 4.7623 849.58 5.79485L861.065 5.17322L858.125 5.46823C867.133 6.03719 868.851 5.05732 879.377 5.20482C866.975 4.58319 858.841 3.8035 843.037 4.59372C854.543 3.97208 877.375 3.27669 882.969 3.24508C895.055 2.78149 903.494 3.62439 914.799 3.75082C893.105 4.19334 922.396 7.11189 878.913 6.32167C879.714 6.11094 883.243 6.15309 884.603 6.29006C878.808 4.86766 858.536 6.37435 849.106 6.92223C851.529 7.73353 841.678 7.94425 858.388 8.39731C852.909 7.8705 872.465 6.57454 888.375 7.24886L885.572 8.99788L908.72 9.2086L906.55 9.29289C915.263 10.4203 931.257 9.07163 947.198 9.73541C958.715 9.11377 1002.87 9.60898 983.865 7.77567C998.173 8.87144 1010.73 7.48066 1026.35 7.23832L1006.89 6.52186C1029.9 5.26804 1023.27 6.07933 1041.69 4.08798C1043.55 4.56211 1047.65 4.96249 1043.91 5.45769C1054.73 5.49984 1067.17 5.55252 1079.53 5.6052C1085.8 5.6052 1092.05 5.6052 1098.06 5.6052C1107.79 5.55252 1117.15 5.49984 1125.77 5.44716C1125.84 12.949 1125.94 19.8924 1126.07 26.1298C1126.11 27.6997 1126.15 29.2064 1126.18 30.6709C1126.2 31.4085 1126.22 32.125 1126.24 32.8414C1126.24 33.1891 1126.26 33.5263 1126.27 33.874C1126.28 34.0847 1126.29 34.2849 1126.3 34.4956C1126.39 36.1393 1126.48 37.6459 1126.6 39.0051C1126.53 60.7941 1124.47 64.2184 1125.27 94.7946C1125.51 101.232 1126.9 89.7793 1126.4 110.019C1126.27 111.379 1125.1 90.5274 1125.24 113.075C1126.59 129.132 1124.5 150.784 1125.66 171.678C1125.18 182.709 1125.36 201.843 1124.29 197.85C1124.53 180.381 1124.31 155.663 1123.81 151.901C1124.45 154.314 1124.43 139.479 1124.92 152.344C1125.72 125.94 1124.26 135.212 1124.82 111.516C1124.4 109.882 1123.64 123.696 1124.02 128.774C1122.56 128.89 1123.31 82.0668 1121.57 103.118C1121.45 128.426 1124.48 135.949 1122.94 157.886C1122.06 149.088 1122.81 135.338 1121.28 124.17L1120.7 142.197L1121.75 155.283L1121.54 154.504C1120.21 186.344 1123.04 183.952 1123.77 212.442C1124.78 195.943 1126.28 216.257 1126.9 203.845C1127.09 222.894 1126.9 236.886 1125.44 237.013C1124.26 201.379 1123.9 234.99 1122.46 202.043C1121.94 207.448 1120.33 194.194 1120.17 213.833C1121.2 235.959 1121.38 207.216 1121.86 229.279C1121.73 230.586 1121.59 231.934 1121.38 231.165C1122.14 241.312 1121.11 243.008 1121.94 255.283L1121.65 252.375C1120.76 267.515 1122.65 268.938 1121.69 281.971C1122.76 276.756 1122.57 290.716 1123.25 298.808C1123.66 285.596 1125.21 278.441 1125.11 252.375C1124.26 249.224 1123.79 251.132 1123.38 240.427L1123.48 257.369C1123.34 253.713 1123.12 250.931 1122.95 247.581L1123.4 231.302C1124.01 251.932 1124.91 242.471 1125.81 251.237C1125.44 270.118 1126.04 266.82 1125.77 278.694C1124.51 277.504 1123.63 315.097 1122.83 336.844C1122.85 333.472 1122.87 329.11 1122.88 326.761C1122.09 310.967 1121.84 337.624 1121.49 338.214L1122.11 349.719C1122.03 347.549 1121.73 344.556 1121.55 349.466C1121.78 365.049 1123.03 364.143 1123.26 379.695C1122.57 380.864 1121.52 367.715 1121.16 377.387C1120.56 380.717 1118.96 391.348 1119.57 412.01C1119.84 413.474 1119.98 418.827 1120.1 425.043C1120.06 424.179 1120.04 423.094 1119.98 422.704L1119.23 436.433C1118.05 424.737 1119.79 412.779 1118.61 401.02L1117.5 400.019C1117.5 390.874 1117.01 378.452 1116.43 372.73C1116.24 386.68 1116.54 389.62 1116.77 405.214C1116.06 407.395 1115.54 396.416 1115.46 394.835L1116.09 397.164C1117.02 378.568 1115.02 369.348 1115.23 346.2C1115.27 342.702 1115.36 344.841 1115.57 345.61C1114.48 326.866 1115.97 308.47 1114.54 290.253L1115.13 296.195C1114.59 283.794 1113.53 259.539 1112.49 235.296L1112.06 235.095C1111.8 237.793 1111.82 228.689 1111.99 223.811V223.832C1111.49 211.684 1111.01 199.999 1110.61 190.443C1110.34 193.498 1110.11 197.407 1110.05 201.896C1110.55 205.699 1110.14 227.973 1111.3 224.917C1110.61 235.211 1111.61 251.785 1111.16 259.35C1111.91 245.579 1112.26 268.938 1112.9 271.351C1112.18 275.976 1112.95 291.749 1111.97 289.947C1111.72 292.665 1112.63 283.183 1112.04 277.325C1111.12 262.9 1111.23 303.728 1110.36 285.764C1111.06 308.617 1110.75 338.719 1111.66 362.299L1112.06 349.108C1111.91 359.581 1112.13 384.383 1111.66 386.238C1111.54 378.452 1111.55 369.348 1111.35 359.392C1110.25 358.907 1111.35 383.319 1110.68 384.436L1112.52 413.358L1112.59 400.694C1113.26 408.67 1112.45 435.168 1112.29 454.797C1110.77 443.534 1112.25 425.18 1111.64 404.518C1111.06 389.515 1110.17 413.78 1109.8 399.587C1109.45 403.264 1109.49 412.536 1109.88 417.109L1109.6 422.714C1108.22 410.05 1108.53 381.644 1107.34 362.742C1107.49 364.396 1107.64 365.85 1107.8 366.367C1108.34 351.816 1108.32 337.023 1107.95 322.831C1107.52 330.333 1107.81 333.304 1107.97 337.603C1107.63 338.14 1107.49 324.738 1107.11 319.67C1106.71 332.872 1106.3 322.135 1106.06 330.48C1105.74 321.882 1105.83 314.918 1105.98 304.434C1106.51 298.998 1106.7 308.933 1107.38 307.817C1106.97 297.027 1108.6 292.096 1107.81 276.303C1107.53 297.312 1106.33 270.771 1105.86 263.533L1105.81 267.052C1105.01 260.393 1104.98 254.735 1105.71 250.131C1106.03 258.728 1105.81 267.052 1106.62 264.607C1106.59 258.928 1106.55 253.27 1106.31 246.833L1106.9 252.68L1106.73 224.454C1106.01 219.986 1104.99 212.527 1103.93 208.607C1104.58 201.832 1104.03 192.413 1103.79 185.986L1104.08 188.978C1104.69 176.524 1104.19 148.835 1103.55 146.496C1104.11 137.603 1107.6 209.366 1107.01 146.496C1107.01 122.6 1104.98 131.608 1104.27 117.964C1104.27 117.964 1104.48 118.733 1104.61 117.374C1104.76 106.911 1103.99 105.868 1103.66 97.2706C1103.36 103.54 1103.34 112.632 1103.63 115.562C1102.78 112.411 1103.7 93.7726 1103.03 85.765C1104.34 96.1643 1103.52 65.5459 1104.2 73.6273C1104.62 63.228 1104.57 52.4705 1104.29 42.9351C1104.02 31.0397 1103.51 31.1662 1103.04 29.1853C1103.17 28.7428 1103.26 28.2898 1103.36 27.8578C1102.52 27.5944 1101.44 27.489 1100.3 27.4679C1099.73 27.4679 1099.14 27.4679 1098.54 27.4995C1098.25 27.5101 1097.94 27.5311 1097.64 27.5417H1097.4L1096.83 27.5733C1096.41 27.5733 1095.98 27.5944 1095.55 27.6049C1088.64 27.7735 1080.67 27.9737 1070.07 27.626C1073.59 27.6787 1079.99 27.4258 1084.91 27.6049C1097.96 26.5618 1061.17 27.057 1081.27 26.1088C1076.97 26.2668 1080.97 26.6672 1085.38 26.4986C1089.24 26.4354 1092.98 26.2984 1095.52 26.1088C1096.15 26.0666 1096.71 26.0139 1097.17 25.9612C1097.46 25.9402 1097.46 25.9086 1097.57 25.877C1097.66 25.8453 1097.73 25.8243 1097.79 25.7927C1098.05 25.6768 1098.11 25.5609 1097.88 25.445L1097.59 25.4134H1097.45C1097.45 25.4134 1097.35 25.3923 1097.23 25.3818L1096.07 25.3291L1093.73 25.2132L1089.06 24.9814L1079.72 24.5178L1086.25 24.2649L1057.91 22.99C1057.14 23.2007 1059.8 23.4642 1061.17 23.5906C1028.31 23.0322 990.734 23.7381 961.939 23.5695C956.534 26.5091 891.061 24.8339 867.797 26.6356C874.035 25.7927 877.448 24.2965 873.582 23.6854C878.776 23.559 889.397 22.3684 901.155 22.6213C903.03 23.0954 917.56 23.6327 908.214 24.1701C940.729 23.8329 903.81 22.8741 913.409 21.7784C877.385 22.0628 856.25 23.7908 833.512 24.4862L832.933 24.1385L815.759 24.7917C829.793 24.9919 829.098 26.6566 811.017 26.0771L813.219 25.9929C802.904 25.2869 781.442 26.1193 765.332 26.0034L754.406 26.9727C738.265 26.8674 737.569 25.0657 732.322 23.991C707.024 23.8645 692.421 25.3396 674.457 26.2141C666.334 25.4344 628.445 25.2448 648.517 24.2965C625.706 24.9919 630.3 29.1853 591.168 26.8568L601.325 26.0982C563.911 26.2563 510.555 27.7629 493.318 26.9622C507.12 24.2438 446.589 24.2017 439.93 21.536C441.785 22.1471 427.729 22.3473 425.675 22.6739C422.598 22.3578 417.467 22.0628 412.02 22.6107C426.613 23.1481 401.768 25.3712 429.658 24.2965C415.539 26.1193 397.353 27.5522 366.43 27.4574L366.893 26.3511L391.358 26.6882C388.882 25.8664 401.484 25.9296 406.646 25.5503C361.13 24.9287 412.61 22.9479 366.071 23.0954C361.572 23.8118 364.491 23.5168 352.395 23.8013C358.085 23.7592 359.107 23.0006 349.94 22.9795L341.142 23.8645C324.896 22.0101 368.042 22.6634 354.176 21.3569C372.14 20.4824 403.264 20.0188 397.459 18.5964C368.115 18.0801 371.065 21.2515 340.384 20.6088L337.118 20.0083C326.328 20.4192 324.579 21.399 318.679 21.9891C318.142 21.6414 315.402 21.3885 308.47 21.2937C290.242 22.7161 278.157 23.0006 261.351 24.5599C306.088 23.3904 299.598 25.6452 345.768 24.6021C338.53 25.0657 306.025 25.4028 304.034 26.9306L304.466 25.8137C289.452 26.3932 274.448 26.9622 255.588 26.5934L267.104 25.9718C242.112 26.7409 225.56 24.286 205.836 26.1298C212.8 26.2246 218.458 26.193 222.757 26.0245C209.892 26.5197 193.751 26.4038 179.769 26.2246L150.847 28.058C151.1 27.5101 132.767 27.4679 141.617 26.5934C120.787 25.7505 110.978 27.4047 98.9351 27.6787C77.6097 26.4986 117.416 27.1518 119.502 25.6135C90.1162 25.0973 58.971 25.5609 42.3975 26.5618C48.3926 26.7831 51.3006 26.9727 50.9951 27.2467C50.5526 27.0676 47.3706 27.0043 43.4722 26.9833C40.1533 26.9833 36.2127 26.9833 33.3995 26.9833C32.8411 27.2256 32.3459 27.4679 31.9139 27.7103C27.7837 27.2256 27.3728 26.7936 31.2501 26.2563C29.8699 26.2141 28.458 26.3089 27.141 26.4354C27.2885 28.3003 27.4782 30.1125 27.5414 31.7667C27.5519 32.1882 27.5625 32.5885 27.5625 32.9995C27.5519 33.6 27.5308 34.1901 27.5203 34.7801C27.4676 36.7714 27.3623 38.7312 27.1726 40.6277C27.0567 37.7197 26.9303 34.6431 26.8144 31.5349C26.7512 29.6911 26.7301 27.8051 26.7301 26.0034C29.185 26.0034 31.5241 26.0034 33.5576 26.0139C35.3698 25.9929 37.0345 25.9718 38.5307 25.9612C40.3851 25.9296 42.0077 25.877 43.3458 25.8032C40.501 25.8453 37.8669 25.877 35.4225 25.9086C34.6955 25.9086 34.0001 25.9086 33.3258 25.9191C32.799 25.9191 32.2932 25.9191 31.8086 25.9086C29.8488 25.877 28.0998 25.7821 26.3824 25.6662C26.2454 27.4047 26.0663 29.0378 25.8766 30.829C25.7924 31.7562 25.6975 32.6939 25.6027 33.6738C25.529 35.5808 25.4447 37.5722 25.3604 39.69C25.0654 48.3613 24.9179 59.182 25.2339 75.7345C24.8862 76.3245 24.2225 68.2748 24.2119 77.4308C24.4753 98.6403 25.6975 82.9729 26.4983 89.6002C26.0452 73.269 26.4983 65.6724 27.4044 56.1898L27.9944 60.5518C27.6889 61.2155 27.6678 71.4673 27.3833 74.4912L28.5739 77.1358C27.2569 75.9136 26.2454 92.3291 26.7406 105.225C27.6994 92.1921 27.6467 95.7113 29.1534 92.1711C30.5758 110.304 27.7521 112.632 29.2588 132.957C28.8373 131.44 28.5213 113.686 28.1946 129.027C28.1419 141.723 29.164 140.027 29.4906 148.54C28.3948 138.952 27.573 141.418 26.2665 131.018C26.1295 108.471 26.277 121.925 25.8029 99.8731L24.8757 118.533C24.6966 99.42 23.6114 104.635 23.1899 103.066C22.0731 135.696 24.8652 127.657 24.5702 148.656C25.3288 158.781 24.7282 128.985 25.5184 144.821C25.3604 164.45 26.2349 149.299 26.7196 171.33L26.2138 167.642C25.5606 174.375 26.3613 181.034 26.4772 188.831C26.8144 197.407 30.3019 179.127 30.3756 214.371C30.0701 212.643 29.8699 212.01 29.7435 212.01L20.4926 177.62C20.5137 213.338 20.2608 254.493 19.6392 295.847C17.827 305.583 18.143 266.325 17.3317 268.853L17.7005 249.994C18.4697 251.047 17.9429 289.515 19.2915 272.478C18.7436 239.173 19.6181 224.053 18.0377 192.455C16.2254 202.275 18.3643 234.073 16.963 254.63C17.0789 246 16.8787 238.709 16.6258 231.639C16.3835 250.942 16.1306 271.603 15.8672 293.561L16.3097 298.492C16.5099 283.689 16.668 273.447 16.7312 272.13C16.5731 291.759 17.5741 308.312 18.9016 309.608L18.9543 306.12L19.3652 313.211C19.281 317.815 19.1967 322.42 19.1124 326.993L19.1756 327.035ZM982.758 632.312C981.568 632.439 980.63 632.586 979.935 632.776C980.651 632.586 979.85 632.46 982.758 632.312ZM91.212 13.971C65.219 13.7392 39.0259 13.5074 14.0339 13.2861C14.0339 14.8876 14.0128 16.3627 14.0128 17.8378C14.0866 16.3522 14.1603 14.8876 14.2341 13.4863C20.5769 13.8024 26.6458 14.108 32.2511 14.3819C34.706 14.5294 37.0556 14.6664 39.2788 14.8034C41.4176 14.9509 43.4406 15.0773 45.3266 15.2037C52.8495 15.7305 58.1387 16.1941 59.8771 16.5734C61.6156 16.9633 59.8139 17.2688 53.155 17.4796C49.8256 17.5849 45.2844 17.6692 39.3736 17.7219C36.5288 17.743 33.3469 17.764 29.8067 17.7851C26.4035 17.7851 22.6631 17.7956 18.5645 17.8062C18.5645 18.3857 18.5645 19.1548 18.5645 19.924L18.7541 24.6442C18.8174 22.7793 18.8806 20.6404 18.9227 18.1644C23.4428 18.2487 28.6477 18.2803 34.1792 18.2803C40.227 18.2803 46.8017 18.2382 53.1234 18.1644C59.6243 17.7008 73.353 16.6156 85.4065 15.6041C91.4332 15.0773 97.0385 14.5926 101.106 14.2344C105.173 13.8551 107.712 13.5917 107.596 13.5074C102.992 12.7699 96.2799 13.5706 87.9141 13.3493L91.212 13.9499V13.971ZM109.819 18.3646C124.654 18.6596 121.282 18.0801 123.579 17.5533C118.364 17.6165 113.148 17.6903 107.996 17.7535C109.967 17.8799 110.946 18.0696 109.819 18.3646ZM122.694 17.0265C121.03 17.016 119.607 16.9949 118.859 16.9211L122.694 17.0265ZM17.121 199.746C17.1105 199.082 17.0999 198.851 17.0894 198.218C17.0473 201.727 17.0051 205.236 16.963 208.902C17.0473 207.48 17.1105 204.772 17.121 199.746ZM18.4064 169.634L17.4476 166.114C17.416 169.381 17.3739 172.71 17.3423 176.124C17.7743 174.997 18.1536 173.827 18.4064 169.634ZM21.5568 72.8476C20.4083 66.7471 20.3557 46.3067 19.0281 45.0529C18.6909 43.7464 18.554 48.0452 18.4486 52.8708C18.417 58.2549 18.3748 63.9971 18.3432 70.0871C18.5329 70.2978 18.712 71.5095 18.8911 73.5324C19.0597 67.5162 19.3863 63.4914 20.1976 65.9358C18.417 81.403 21.462 79.8015 21.0089 96.5225C21.9466 101.843 21.9361 77.9155 21.5568 72.837V72.8476ZM1113.95 148.35C1113.83 148.824 1113.53 150.458 1113.17 152.755L1112.51 140.975C1112.8 119.966 1114.7 103.129 1113.07 84.2162C1113.48 75.3657 1114.36 70.6244 1115.07 66.0938C1115.02 70.4242 1114.95 74.4807 1114.84 77.8523C1117.24 130.881 1112.31 105.499 1113.96 148.35H1113.95ZM1004.91 14.993C1007.08 14.9087 1007.85 14.698 1007.85 14.698C960.896 17.1319 922.238 17.8378 896.93 17.743C901.84 18.7123 924.545 19.4498 935.324 19.8502L925.768 20.946L919.804 20.082L903.22 21.083C907.856 21.8205 921.248 21.673 930.203 22.2314C930.983 22.0207 959.652 20.7353 967.67 20.0609L944.765 19.3023C950.949 19.6079 981.336 19.355 993.389 19.0705C993.621 18.5226 972.854 17.6692 970.241 18.8703C967.765 18.0485 991.714 18.0485 976.574 17.1635C994.517 16.289 1023.06 17.016 1036.3 17.4269L1038.55 18.7966C1053.08 19.3339 1048.37 17.1424 1065.63 17.9326C1044.41 18.196 1069.22 19.4393 1052.33 19.5447C1057.72 20.0609 1052.45 20.9987 1069.36 20.8933C1076.39 19.9872 1080.85 20.2717 1085.21 20.5772C1087.39 20.7353 1089.55 20.8933 1092 20.9144C1094.35 20.9355 1097.5 20.8196 1099.82 20.4192C1103.19 20.7037 1101.2 20.9776 1100.22 21.2094C1099.19 21.4412 1099.08 21.6308 1105.12 21.7573C1107.12 21.6308 1108.91 21.5044 1109.88 21.378C1110.27 25.8664 1110.63 28.2055 1111.04 29.3539C1111.45 30.5234 1111.89 30.5129 1112.47 30.8606C1112.59 25.5819 1112.46 21.81 1112.23 19.0389C1108.68 19.2813 1105.93 19.6184 1103.1 19.8818C1101.69 20.0083 1100.26 20.1136 1098.67 20.1768C1098.27 20.1874 1097.87 20.1979 1097.45 20.2085C1096.92 20.2085 1096.37 20.219 1095.8 20.2295C1094.66 20.2295 1093.46 20.2295 1092.16 20.1979L1097.73 19.7765L1102.46 19.355L1112.74 18.5121L1113.33 25.2448C1113.51 22.3368 1113.6 19.7975 1113.63 17.6165C1111.8 17.5955 1110.15 17.6165 1108.62 17.6481C1110.44 17.606 1112.21 17.5428 1113.78 17.469C1113.95 21.0724 1114.21 24.1806 1114.52 27.0886C1114.79 29.5014 1115.01 31.851 1115.2 34.0636C1115.22 27.5944 1115.23 21.3885 1115.24 15.9939C1105.79 15.9307 1098.67 15.7938 1096.87 15.4355C1097.64 15.2248 1098.55 15.0035 1099.44 14.7928C1099.02 14.7612 1098.58 14.7296 1098.13 14.698C1097.7 14.6769 1097.26 14.6453 1096.79 14.6242C1095.93 14.5821 1095.01 14.5505 1094.07 14.5399C1092.21 14.5083 1090.24 14.5294 1088.32 14.5716C1084.49 14.6769 1080.84 14.9087 1078.53 15.1405C1063.03 15.2143 1047.56 16.1098 1044.17 15.2775L1050.05 14.6875C1030.99 14.8771 1028.88 14.9509 1004.91 14.9614V14.993ZM380.348 13.5285C391.896 15.878 404.623 17.9642 458.495 17.5533L454.26 17.7114C481.412 19.1864 507.194 15.7622 540.225 17.3953C524.199 18.2803 525.063 18.2066 507.362 20.2295L524.558 19.5657C519.795 20.8512 536.948 20.1874 549.56 20.2401L538.423 21.7678C530.848 21.3253 511.219 21.1672 511.788 21.5149C516.086 21.3464 485.869 19.5973 469.453 20.0399C471.149 21.0724 505.803 20.651 490.336 22.3368C503.98 21.6308 505.666 22.6634 519.932 22.2946C506.256 23.0006 516.55 23.7065 506.372 24.4546L529.752 24.1069C530.363 24.4546 495.699 24.8655 514.854 26.1404C524.22 25.603 549.244 26.2773 549.687 25.171L550.266 25.5082C567.788 25.7505 557.979 23.9383 579.494 24.5705C579.747 24.012 575.637 23.6222 567.935 23.7381C561.413 23.991 560.423 24.7496 547 24.9076C540.984 24.0436 563.184 25.013 553.87 23.5484C549.244 22.8214 518.436 24.1806 528.256 22.5264L545.746 22.7688C546.199 21.6519 558.864 21.7151 558.505 20.8196C569.2 20.4086 579.304 21.6625 590.22 20.6931C594.761 19.9767 586.837 18.6385 604.918 19.218C619.036 20.8617 660.665 20.5456 676.248 20.3033L689.893 19.5973C688.734 18.9125 663.826 19.6922 672.581 18.8071L693.854 18.5437L692.211 18.9757C699.259 19.0705 706.466 18.6069 712.904 18.3646C706.276 19.1654 690.946 18.8387 693.991 20.0083C703.979 20.2401 705.497 20.6615 714.695 20.4402C712.693 20.5245 710.965 20.6404 711.218 20.7985C731.437 21.3042 730.742 19.5025 735.81 19.1232C756.134 17.6165 715.317 17.7219 717.919 16.5313L777.27 15.8991C772.202 16.2784 767.102 16.6472 769.009 17.1213C783.56 17.6587 769.336 18.0169 789.776 17.9642C788.322 16.3838 815.506 16.9738 829.951 16.0572C836.694 16.7104 838.085 16.8368 823.334 16.8579C825.031 17.8905 844.828 17.4901 851.866 17.5849C855.944 17.3321 862.908 17.1845 867.313 16.9527C861.402 16.4365 863.93 15.7938 876.711 15.3618L877.459 15.151C856.502 14.8666 823.914 13.7497 810.775 14.8034L814.494 14.2976C790.229 13.4126 761.697 16.1415 750.508 14.2028C751.54 13.4336 745.629 14.0237 746.061 12.9174L728.192 13.7813L731.911 13.2756L701.525 13.5285L702.325 13.3177C687.88 14.3503 676.564 15.1721 667.524 15.8148C667.492 16.2995 668.43 16.447 663.615 16.8052C658.779 17.0476 655.123 17.0792 651.846 17.016C651.825 17.016 651.825 17.016 651.825 17.016C644.365 16.8685 639.403 16.1731 630.215 15.8886L658.473 15.7727C660.77 14.9509 658.368 14.0974 644.523 13.5179C650.192 13.4863 652.552 12.8436 645.545 12.7488C644.776 12.9595 627.033 13.2756 633.787 13.9288C606.941 14.2239 563.489 12.0639 522.724 13.6338C552.005 12.6961 499.26 12.5275 531.764 12.1904C509.069 10.8733 512.241 13.4863 489.114 13.2756C487.143 12.8015 501.705 13.3388 507.025 12.4011C468.568 11.8743 442.143 14.5294 404.939 14.129L403.349 13.107C396.31 13.2334 388.492 13.381 380.358 13.5285H380.348ZM306.752 14.8139C299.588 14.9298 292.328 15.0457 284.953 15.1721C285.669 15.1721 286.343 15.1932 287.091 15.2037L265.576 16.0256C278.799 16.4259 287.502 17.5533 269.001 18.0801C270.56 17.6587 265.144 17.1319 271.582 16.8895C259.192 16.2679 231.987 15.6779 239.078 17.2267C262.9 15.7622 244.63 19.2075 263.353 18.1117C253.312 19.1232 243.356 18.6702 233.873 19.1232C243.745 18.2803 231.576 17.2056 216.73 16.8052C210.272 17.0581 192.803 16.8158 182.066 17.2267C185.891 18.175 176.545 18.7228 194.035 18.9546C187.619 19.2075 177.694 19.3972 166.578 18.9125C170.982 18.7544 178.695 18.628 178.157 18.2909C170.982 17.4163 162.585 17.4585 157.938 17.0792C154.24 17.1319 150.51 17.1845 146.875 17.2267C147.96 17.311 148.898 17.4163 149.562 17.5533L137.276 18.3857C153.65 17.9432 144.842 18.8282 144.631 19.3761C145.073 18.2698 134.095 19.2286 128.489 19.2707L140.659 20.4402C134.779 21.0303 119.892 19.5973 122.968 20.7563C148.793 21.2199 158.718 21.0197 182.066 20.672L172.594 19.7659C198.935 19.1232 188.841 21.3253 218.406 21.2831C230.691 20.4508 262.858 21.2199 263.469 19.5552C259.76 20.0609 281.876 21.0408 292.001 20.2822C303.201 18.7544 337.054 18.5543 326.803 17.8589C317.657 17.8378 305.34 18.6807 297.986 17.6903L315.729 17.3742L304.086 16.5418C310.103 16.8368 309.523 16.0256 306.752 14.8034V14.8139ZM6.216 124.401C6.216 124.591 6.20546 124.844 6.19492 125.086C6.19492 124.823 6.19492 124.57 6.19492 124.328L6.216 124.401Z" fill="#333333"/>
<path d="M1117.39 411.051C1117.77 416.15 1117.71 428.773 1118.53 426.297C1117.63 426.602 1118.39 403.749 1117.39 411.051Z" fill="#333333"/>
<path d="M1116.52 426.139C1116.73 427.024 1117.07 426.413 1117.11 432.071L1116.87 416.488L1116.52 426.149V426.139Z" fill="#333333"/>
<path d="M1110.37 441.954C1111.05 449.993 1111.42 455.092 1111.36 467.704C1109.17 472.446 1110.75 447.043 1108.71 441.322C1108.5 464.449 1110.42 471.55 1110.61 490.579C1111.52 481.149 1112.05 442.649 1110.38 441.954H1110.37Z" fill="#333333"/>
<path d="M1107.61 431.681L1108.1 444.546L1108.23 443.281L1107.74 430.406L1107.61 431.681Z" fill="#333333"/>
<path d="M1126.63 153.092C1127.32 151.933 1126.64 143.915 1126.47 139.626C1126.43 143.125 1126.25 148.013 1126.63 153.092Z" fill="#333333"/>
<path d="M693.549 646.494L791.663 645.83C763.436 646.009 737.369 646.094 693.549 646.494Z" fill="#333333"/>
<path d="M925.631 9.10334C951.972 8.46063 963.678 7.28057 990.524 6.97502C955.227 5.59477 943.901 9.12442 914.263 7.71256L925.631 9.10334Z" fill="#333333"/>
<path d="M934.924 3.64557C939.286 4.93099 914.589 5.15225 918.424 6.10052C936.178 5.78443 926.695 4.87831 942.805 4.98367L934.924 3.64557Z" fill="#333333"/>
<path d="M1054.31 24.9498L1046.32 25.6241L1052.75 25.3818L1054.31 24.9498Z" fill="#333333"/>
<path d="M814.853 4.78347L817.771 4.49899L804.559 4.08807L814.853 4.78347Z" fill="#333333"/>
<path d="M1044.05 27.7209L1055.92 27.9948L1061.79 27.4048L1044.05 27.7209Z" fill="#333333"/>
<path d="M939.254 20.7986L949.875 20.3877C947.768 20.472 933.238 19.9346 939.254 20.7986Z" fill="#333333"/>
<path d="M734.177 4.2356L721.259 4.7308L722.576 4.85723L735.462 4.37257L734.177 4.2356Z" fill="#333333"/>
<path d="M856.113 24.3598C863.446 25.3502 834.924 24.6232 850.023 25.5083C863.457 25.3607 857.999 24.8339 856.113 24.3598Z" fill="#333333"/>
<path d="M700.187 17.6377C698.448 17.6377 696.605 17.6693 694.834 17.7852C696.942 17.7325 698.712 17.6798 700.187 17.6377Z" fill="#333333"/>
<path d="M700.187 17.6377C705.813 17.6377 711.44 18.017 715.296 17.7325C708.279 17.2794 705.729 17.448 700.187 17.6377Z" fill="#333333"/>
<path d="M635.705 17.8695L640.804 17.9432C635.589 18.4279 638.065 18.3647 642.722 17.9643C648.127 17.9327 647.822 17.6166 648.464 17.4059C649.55 17.2795 650.624 17.153 651.794 17.0161C650.129 17.153 648.633 17.2689 647.358 17.3743C638.982 17.3743 633.872 17.4164 635.705 17.8695Z" fill="#333333"/>
<path d="M396.184 1.16955C415.034 1.53832 419.901 1.71743 418.879 2.48658C436.77 2.72892 433.988 1.41188 444.788 1.0958C424.548 1.2433 420.407 0.885071 396.184 1.16955Z" fill="#333333"/>
<path d="M444.788 1.09578C447.053 1.07471 449.224 1.05363 451.858 1.03256C448.918 1.01149 446.727 1.03256 444.788 1.09578Z" fill="#333333"/>
<path d="M711.071 26.2774L699.354 27.4575L703.653 27.2889L711.071 26.2774Z" fill="#333333"/>
<path d="M368.211 0.779675C371.709 0.832356 377.303 0.790211 380.064 1.05362C381.065 0.284471 364.734 0.726994 368.211 0.779675Z" fill="#333333"/>
<path d="M440.9 15.8676C442.818 16.3417 454.871 16.0572 459.781 16.2364C452.743 16.1415 447.001 14.7191 440.9 15.8676Z" fill="#333333"/>
<path d="M314.149 3.95109C317.647 4.00377 323.021 4.52005 320.692 5.15222C325.77 4.77292 332.64 3.41374 314.149 3.95109Z" fill="#333333"/>
<path d="M406.457 15.7306L409.154 15.9835L422.051 15.4883L406.457 15.7306Z" fill="#333333"/>
<path d="M452.458 27.0887C466.967 26.172 429.447 24.8761 454.429 24.0964C422.198 23.1376 456.905 25.3923 433.124 25.2448C447.043 25.5504 453.87 26.7199 452.448 27.0887H452.458Z" fill="#333333"/>
<path d="M433.135 25.2449C431.112 25.1922 428.92 25.1711 426.539 25.1606C429.173 25.1922 431.291 25.2133 433.135 25.2449Z" fill="#333333"/>
<path d="M228.984 19.4394C231.092 19.3446 232.535 19.2392 233.863 19.1339C232.209 19.2076 230.618 19.3024 228.984 19.4394Z" fill="#333333"/>
<path d="M357.211 26.0035L378.947 24.6232C364.428 25.5399 327.888 25.4872 330.164 26.8569C341.996 27.1309 356.231 26.7726 362.078 26.1826L357.2 26.0035H357.211Z" fill="#333333"/>
<path d="M107.659 1.11682L117.058 0.568933L105.331 0.410889C108.692 0.611077 102.613 1.62256 107.67 1.11682H107.659Z" fill="#333333"/>
<path d="M103.055 0.379317L105.32 0.410926C104.825 0.379317 104.098 0.368781 103.055 0.379317Z" fill="#333333"/>
<path d="M270.107 18.7756C277.135 18.8705 282.751 18.8388 289.157 18.586C286.502 18.3226 269.001 18.0802 270.107 18.7756Z" fill="#333333"/>
<path d="M41.5128 3.1082L57.0222 2.8764L40.101 2.98177L41.5128 3.1082Z" fill="#333333"/>
<path d="M1.53829 64.7242L1.27489 67.4005L1.77009 80.2547L2.0335 77.5363L1.53829 64.7242Z" fill="#333333"/>
<path d="M63.7865 27.7841C74.3017 27.9316 82.5094 26.6989 79.7594 26.4355L59.3823 26.4882C64.5662 27.5629 65.0403 26.4566 76.8514 26.7305L63.797 27.7841H63.7865Z" fill="#333333"/>
<path d="M3.55072 601.704C2.83425 597.153 3.24516 574.858 3.93002 573.688C4.22504 576.681 4.50951 588.766 4.95204 581.18L3.18195 563.542C4.28825 540.078 5.51046 581.369 6.1321 592.959C6.3639 569.063 5.19437 561.972 5.20491 536.559C5.04686 544.06 4.60434 548.791 4.22504 552.753C2.98176 553.617 3.52964 529.931 3.43482 512.989C2.89747 523.768 2.43387 517.53 1.94921 509.681C1.90706 508.269 1.84384 507.331 1.75955 506.657C1.69633 505.74 1.64365 504.876 1.58044 503.991V506.025C1.44346 505.877 1.27488 506.33 1.04309 507.795C1.40132 522.008 0.368767 532.871 0.347694 542.016C2.37066 532.976 0.821826 573.172 1.44346 584.667L1.64365 597.943V602.905C1.42239 603.906 1.14845 602.495 0.748072 594.919C0.948261 598.08 1.01148 604.928 1.1063 610.744C1.18006 614.221 1.25381 617.403 1.29596 619.553C1.38025 623.019 1.49615 624.81 1.65419 623.841V649.476L51.9964 649.455C53.4926 649.539 54.9887 649.644 56.1056 649.781C57.7703 649.655 58.0548 649.549 57.8335 649.444L267.452 649.318C257.116 649.16 248.16 648.696 237.498 648.475C253.502 647.126 220.018 648.232 224.707 646.958C231.903 646.494 242.429 646.641 248.698 646.958C251.037 646.315 242.102 645.746 243.135 644.977C216.699 644.165 212.653 647.242 186.808 646.778C187.83 646.009 195.816 645.335 178.906 645.44L183.204 645.272C156.116 646.136 162.1 643.533 145.042 645.641L145.485 644.534C133.199 645.367 109.293 645.377 95.8167 645.535L96.6174 645.324C77.7154 645.957 72.4157 646.03 66.5364 645.999C63.5968 645.988 60.5097 645.978 55.505 645.957C53.0079 645.957 50.0261 645.978 46.3384 645.988C42.3347 646.03 37.5617 646.072 31.7984 646.125C35.1068 646.02 36.1077 645.904 37.8568 645.799L42.735 645.472L52.5022 644.819C45.1795 644.555 40.691 644.766 36.7294 645.04C36.2342 645.072 35.7495 645.103 35.2648 645.145L34.4852 645.198L33.284 645.251C31.672 645.314 30.0494 645.367 28.3636 645.43C24.9709 645.535 21.2727 645.598 16.8791 645.556C17.5745 645.451 17.0371 645.187 18.3752 644.935C19.7133 644.682 22.8953 644.429 30.8818 644.324L6.25853 644.892L5.5526 615.538L4.84667 597.269C4.01431 584.983 4.03538 599.766 3.56125 601.673L3.55072 601.704Z" fill="#333333"/>
<path d="M5.20491 536.559C5.26813 533.83 5.2892 530.732 5.24706 527.087C5.23652 530.616 5.21545 533.651 5.20491 536.559Z" fill="#333333"/>
<path d="M282.161 649.339H267.431C271.993 649.412 276.745 649.434 282.161 649.339Z" fill="#333333"/>
<path d="M2.78157 462.752C2.20208 471.677 1.98081 456.062 1.54883 454.513L1.5699 486.49C2.00189 486.354 2.47602 489.514 2.86586 488.872L2.78157 462.752Z" fill="#333333"/>
<path d="M0.758614 495.741C1.05363 496.827 1.32757 500.209 1.58044 504.002V486.48C1.25382 486.596 0.958802 488.556 0.758614 495.741Z" fill="#333333"/>
<path d="M23.6012 492.359L23.6434 498.017L23.97 506.583L23.6012 492.359Z" fill="#333333"/>
<path d="M21.7258 580.906C22.379 574.141 21.8838 561.319 21.7258 557.02C21.7468 571.802 21.5045 565.396 21.7258 580.906Z" fill="#333333"/>
<path d="M28.6797 562.636L29.0485 576.881L29.1749 575.553L28.6797 562.636Z" fill="#333333"/>
<path d="M391 644.966C393.339 644.945 395.605 644.914 397.965 644.893C394.772 644.893 392.697 644.924 391 644.966Z" fill="#333333"/>
<path d="M268.717 646.03C302.707 647.274 246.443 647.063 257.127 648.665L275.628 648.138L274.059 648.57L296.617 648.433C291.981 647.695 288.504 647.653 289.515 646.884C319.638 647.189 299.008 647.801 321.103 648.77L354.766 648.633L352.037 648.865C354.872 648.844 356.125 648.749 357.095 648.622L470.549 648.148C491.19 647.537 459.138 646.757 474.363 645.63C450.435 645.63 414.886 644.819 412.853 646.347C413.653 646.136 415.234 645.714 410.387 645.525L396.553 646.789L409.744 647.189C395.826 648.454 350.899 648.169 342.776 647.39C368.326 646.958 355.504 645.44 391.095 646.273C389.494 645.883 382.982 645.198 390.99 644.987C349.287 645.43 311.905 644.734 268.706 646.051L268.717 646.03Z" fill="#333333"/>
<path d="M687.059 645.293L686.732 645.43C687.48 645.356 687.733 645.303 687.059 645.293Z" fill="#333333"/>
<path d="M673.056 645.103L652.732 646.61L684.425 646.494L686.721 645.44C683.919 645.704 672.803 646.241 668.494 645.83L673.045 645.114L673.056 645.103Z" fill="#333333"/>
<path d="M629.13 647.516C645.504 647.063 644.608 645.82 635.684 645.261C650.719 644.682 643.618 646.599 653.964 645.282C653.627 644.387 635.104 644.914 630.848 645.072L629.13 647.516Z" fill="#333333"/>
<path d="M508.364 646.863L512.968 646.346L501.631 646.209L508.364 646.863Z" fill="#333333"/>
<path d="M512.968 646.346L524.221 646.483C523.441 646.104 522.672 645.725 520.839 645.461L512.968 646.336V646.346Z" fill="#333333"/>
<path d="M553.754 646.842C558.516 646.937 563.795 647 570.201 647.042L553.754 646.842Z" fill="#333333"/>
<path d="M540.889 646.526L541.268 646.684L553.754 646.842C549.15 646.726 545.019 646.631 540.879 646.526H540.889Z" fill="#333333"/>
<path d="M524.221 646.484C526.044 647.358 528.193 648.264 544.461 648.022L541.258 646.684L524.21 646.484H524.221Z" fill="#333333"/>
<path d="M49.7733 623.799L62.6486 623.304L61.2789 623.167L48.4141 623.662L49.7733 623.799Z" fill="#333333"/>
<path d="M124.043 624.6C127.225 624.442 129.638 624.284 131.83 624.125C128.479 624.22 125.813 624.368 124.043 624.6Z" fill="#333333"/>
<path d="M179.253 618.647C194.394 619.521 158.36 619.806 186.407 620.196C188.883 621.007 175.734 622.06 162.532 621.66C163.575 620.891 175.397 621.165 167.274 620.385C158.507 621.27 155.167 620.67 158.223 621.829C143.472 622.545 141.829 623.377 131.819 624.126C149.646 623.62 187.092 624.8 209.724 623.325C222.199 621.934 214.634 620.038 214.687 618.025C212.811 617.551 180.476 617.33 179.253 618.657V618.647Z" fill="#333333"/>
<path d="M155.431 616.645C148.424 616.55 146.285 616.624 141.987 616.792C143.146 617.477 149.773 616.676 155.431 616.645Z" fill="#333333"/>
<path d="M316.456 631.764C317.795 631.48 330.47 631.122 327.751 630.637L308.533 630.995C313.043 631.048 314.634 631.396 316.456 631.764Z" fill="#333333"/>
<path d="M300.104 631.143L308.533 630.985C306.426 630.964 303.823 630.995 300.104 631.143Z" fill="#333333"/>
<path d="M317.373 631.943C317.068 631.88 316.794 631.827 316.456 631.764C316.183 631.827 316.235 631.891 317.373 631.943Z" fill="#333333"/>
<path d="M600.398 647.337C600.124 647.885 608.69 647.558 612.989 647.4C609.491 647.358 604.581 647.168 600.398 647.337Z" fill="#333333"/>
<path d="M922.807 645.177L930.372 645.62C927.696 645.356 926.326 645.23 922.807 645.177Z" fill="#333333"/>
<path d="M1039.4 630.121C1039.62 630.015 1040.18 629.921 1040.93 629.836C1040.17 629.9 1039.65 629.994 1039.4 630.121Z" fill="#333333"/>
<path d="M1040.94 629.836C1046.11 629.373 1062.08 630.089 1067.81 629.394L1067.08 629.604L1077.76 629.193C1067.75 629.257 1046.75 629.172 1040.94 629.836Z" fill="#333333"/>
</g>
<defs>
<clipPath id="clip0_7_6388">
<rect width="1127" height="649.813" fill="white"/>
</clipPath>
</defs>
</svg>
