<svg width="56" height="43" viewBox="0 0 56 43" fill="none" xmlns="http://www.w3.org/2000/svg">
<g clip-path="url(#clip0_7_9614)">
<path d="M1.03247 14.6479C1.03247 29.395 27.5329 41.3516 27.5329 41.3516C27.5329 41.3516 54.0333 29.395 54.0333 14.6479C54.0333 -12.0558 27.5329 16.8724 27.5329 16.8724C27.5329 16.8724 1.03247 -17.7958 1.03247 14.6479Z" fill="#FF0000"/>
<path d="M11.2344 2.49268C11.2344 2.49268 11.1975 2.50261 11.1729 2.52247C11.2098 2.52247 11.2221 2.50261 11.2344 2.49268Z" fill="#FF2020"/>
<path d="M20.748 10.6558L20.6251 10.5664C20.6988 10.6359 20.7234 10.6558 20.748 10.6558Z" fill="#FF2020"/>
<path d="M4.42492 2.50253C4.42492 2.50253 4.42492 2.4926 4.42492 2.48267C4.33888 2.55218 4.24055 2.66142 4.09305 2.84017C4.20367 2.721 4.302 2.60183 4.42492 2.50253Z" fill="#FF2020"/>
<path d="M42.4793 6.36572L42.3318 6.44517C42.3933 6.40545 42.4425 6.38558 42.4793 6.36572Z" fill="#FF2020"/>
<path d="M29.5856 16.4255C29.6225 16.3461 29.7085 16.2468 29.7946 16.1475C29.6716 16.2567 29.5856 16.356 29.5856 16.4255Z" fill="#FF2020"/>
<path d="M1.38895 5.36259C1.43811 5.30301 1.48728 5.24342 1.54874 5.18384C1.51186 5.18384 1.43811 5.24342 1.38895 5.36259Z" fill="#FF2020"/>
<path d="M0.676025 12.4432C0.676025 12.4432 0.688281 12.4432 0.700537 12.4233C0.700537 12.4134 0.688281 12.4233 0.676025 12.4432Z" fill="#FF2020"/>
<path d="M1.2419 9.7223C1.2419 9.66271 1.2419 9.5932 1.21688 9.52368C1.21688 9.60313 1.20437 9.71237 1.2419 9.7223Z" fill="#FF2020"/>
<path d="M1.21686 9.42432V9.52432C1.22849 9.47432 1.22849 9.42432 1.21686 9.42432Z" fill="#FF2020"/>
<path d="M2.23704 15.6707C2.23704 15.482 2.151 15.3231 2.08954 15.1543L2.23704 15.6707Z" fill="#FF2020"/>
<path d="M52.0052 17.5079L51.9807 17.4583C51.9807 17.4583 51.9929 17.5079 52.0052 17.5079Z" fill="#FF2020"/>
<path d="M3.23267 1.64849C3.331 1.41015 3.84724 1.11223 3.79807 1.07251C3.56454 1.25126 3.23267 1.49953 3.23267 1.64849Z" fill="#FF2020"/>
<path d="M53.345 22.801L53.2713 22.9301C53.3081 22.8705 53.3204 22.8308 53.345 22.801Z" fill="#FF2020"/>
<path d="M1.43811 15.4722V15.6311C1.43811 15.6311 1.45062 15.6013 1.46313 15.5814C1.45062 15.5417 1.43811 15.5119 1.43811 15.4722Z" fill="#FF2020"/>
<path d="M35.9772 35.0158C35.9772 35.0158 36.0017 34.986 36.0139 34.9761L35.9772 35.0158Z" fill="#FF2020"/>
<path d="M34.7112 35.6612C34.7849 35.6016 34.8586 35.5519 34.9447 35.4824C34.8095 35.5619 34.748 35.6115 34.7112 35.6612Z" fill="#FF2020"/>
<path d="M2.08955 15.1544L2.00351 14.8564C2.0158 14.9657 2.05268 15.065 2.08955 15.1544Z" fill="#FF2020"/>
<path d="M23.1203 37.429L23.2432 37.4885C23.2432 37.4885 23.1449 37.4389 23.1203 37.429Z" fill="#FF2020"/>
<path d="M28.4056 17.5974C28.4056 17.5974 28.3196 17.6769 28.2704 17.7166C28.2704 17.7563 28.2704 17.7662 28.4056 17.5974Z" fill="#FF2020"/>
<path d="M34.453 9.13633C34.6005 9.03702 34.748 8.84834 34.8095 8.71924C34.6743 8.82848 34.5637 8.94764 34.453 9.13633Z" fill="#FF2020"/>
<path d="M35.7928 8.00415C35.7928 8.00415 35.7559 8.02401 35.7313 8.03394C35.7559 8.02401 35.7682 8.01408 35.7928 8.00415Z" fill="#FF2020"/>
<path d="M28.9341 13.774C28.9341 13.774 29.0202 13.7244 29.0693 13.6946C29.0325 13.7144 28.9833 13.7343 28.9341 13.774Z" fill="#FF2020"/>
<path d="M55.9877 13.4066C55.9017 11.4999 55.4469 9.00725 54.7586 7.0509C54.4758 6.67353 54.1194 6.05783 53.7875 5.46199L53.9719 5.31303C53.8613 5.1442 53.6892 4.98531 53.5417 4.82642C53.4557 4.58808 53.8736 5.20379 53.6769 4.79663L53.4065 4.66753C53.4065 4.66753 53.1975 4.29016 53.05 4.07169C52.8411 3.85321 52.7919 3.72411 53.259 4.11141C52.9763 3.7837 52.583 3.46591 52.2265 3.15806C51.8455 2.86014 51.3415 2.6218 50.8867 2.3636C50.2107 2.10541 50.4074 2.3636 49.6699 2.09547C49.5347 1.99617 49.9649 2.1352 49.928 2.05575C49.3503 1.81741 48.8709 1.81741 48.4653 1.79755C48.0474 1.76776 47.7278 1.82734 47.4205 1.90679C47.1133 1.97631 46.806 2.04582 46.4741 2.11534C46.1545 2.20471 45.7981 2.29409 45.331 2.3636L45.4785 2.30402C45.1589 2.40333 44.6304 2.58208 44.6304 2.60194C44.9377 2.73104 44.8762 2.38347 45.4785 2.38347C45.4785 2.54236 44.8393 2.63173 44.9254 2.7509C44.5075 2.81049 44.3231 2.96938 43.9912 3.08855C43.4012 3.20771 42.6514 3.56522 42.1967 3.6546C41.9754 3.82342 41.8033 4.09155 41.2871 4.35968C40.8323 4.44905 41.2871 4.21072 40.7586 4.43912V4.56822C40.3284 4.77677 40.3775 4.72711 40.3529 4.67746C39.9104 4.9158 40.0948 4.98531 39.5294 5.25344L39.7507 4.99524C39.3942 5.26337 39.2221 5.34282 38.6813 5.67053C38.6444 5.62088 38.8657 5.49178 39.0377 5.4024C38.6321 5.47192 38.5953 5.75991 38.4355 5.84929C38.5092 5.84929 38.878 5.63081 38.7796 5.81949C38.5092 5.97838 38.3494 6.28624 38.079 6.31603L38.2757 6.05783C37.8086 6.47492 38.0913 6.33589 37.4521 6.72319C37.4767 6.6934 37.4521 6.68347 37.4399 6.6636C37.1694 7.03104 36.5917 7.28924 36.0509 7.68647L36.1247 7.58716C35.9403 7.77584 35.8911 7.9248 35.7682 8.01418C36.1124 7.8255 36.0632 7.90494 36.1615 7.9546C35.633 8.14328 35.7068 8.55044 34.9938 8.98739C34.957 8.93774 35.0553 8.76892 35.2766 8.66961C35.3503 8.38162 35.2643 8.26245 35.5961 7.89501C35.3749 8.11349 35.1045 8.35183 35.1045 8.25252L35.1536 8.42134C35.0061 8.54051 34.8832 8.62989 34.7726 8.71926C34.7972 8.83843 35.2028 8.59016 34.9201 8.90795C34.5882 9.24559 34.5759 8.9576 34.5882 9.05691C34.1212 9.52365 34.5145 9.3449 33.9737 9.72227C34.0105 9.67261 34.0843 9.5733 34.1334 9.54351C33.7278 9.80171 33.2976 10.2883 33.0272 10.2486C33.0395 10.1791 33.0026 10.1294 33.1501 10.0301L33.1747 10.05C33.4451 9.63289 32.8797 10.3479 32.8551 10.1294C32.9658 10.1691 32.4618 10.5862 32.2283 10.765L32.4003 10.7849C31.9824 11.6488 32.2283 10.5962 31.5522 11.2615C31.1712 11.7183 31.7489 11.1324 31.5522 11.4303C31.2327 11.6885 31.0237 11.7283 30.6304 12.1652C30.4706 12.2447 30.1633 12.4433 30.0281 12.3837C29.8068 12.6618 29.1677 13.1086 29.1431 13.3271C29.6839 12.9696 29.4627 12.8107 30.151 12.4234L30.1141 12.6419C29.7331 12.9795 29.3398 13.4661 29.0448 13.6747C29.1185 13.6449 29.1677 13.6449 29.1677 13.6846C28.9341 13.9428 28.8112 14.1315 28.6883 14.3103C28.6269 14.3897 28.5408 14.4989 28.4794 14.5685C28.4425 14.6181 28.381 14.6777 28.3073 14.7373C28.2458 14.7075 28.2581 14.6578 28.295 14.6082C28.3442 14.5486 28.3564 14.5387 28.4794 14.3996C28.4056 14.4493 28.3442 14.4791 28.3073 14.5089C28.2827 14.5287 28.2581 14.5486 28.2335 14.5784C28.1967 14.628 28.1352 14.6976 28.0246 14.7869C27.9508 14.6976 28.1721 14.6479 28.1229 14.5387L27.9385 14.777V14.7571C27.9631 14.9855 27.7665 14.8962 27.6681 15.0948C27.6435 15.1246 27.619 15.1444 27.6067 15.1742C27.3977 14.9657 27.2625 15.1544 26.9675 15.0153C26.9429 14.8962 26.9675 14.8465 27.0167 14.8366C27.0535 15.0153 27.0781 14.9458 27.1396 14.9359C26.9921 14.7869 27.029 14.5089 27.1396 14.5287C26.9552 14.3897 27.115 14.6578 26.9798 14.5784L26.5742 14.062C26.5496 14.1812 26.7094 14.4096 26.3775 14.1315C26.1317 13.8832 26.0334 13.7442 25.7507 13.3966C25.8367 13.4264 25.7875 13.2179 26.0088 13.4761C25.8981 13.2874 25.6769 13.0292 25.5048 12.9696C25.7507 13.3867 24.8902 12.3936 25.0009 12.7511L24.755 12.334C24.8288 12.4234 24.8902 12.3936 24.9886 12.5327C25.0255 12.3539 24.6813 12.2447 24.5584 12.1255C24.4723 11.9765 24.1773 11.629 24.2019 11.5793C24.0667 11.48 23.8332 11.1821 23.8455 11.0828C23.6611 10.9239 23.7471 11.1225 23.6611 11.0828L23.1326 10.4869C23.1694 10.4174 23.3169 10.2486 23.4276 10.3181C23.1571 10.1394 23.1449 10.3678 22.8376 10.0301C23.1571 10.1394 22.518 9.52365 22.9482 9.7024C22.8622 9.44421 22.3336 8.90795 22.0017 8.62989C21.719 8.51072 22.2599 8.98739 22.137 9.03705C21.2766 8.22273 20.9201 8.37169 20.3547 7.73612L20.4899 7.91487C20.0474 7.57723 20.0966 7.61695 19.777 7.45806C20.0105 7.46799 19.691 6.7927 18.9903 6.20679C18.8674 6.20679 19.2362 6.63381 19.0272 6.60402L18.5724 6.21672C18.5724 6.21672 18.6216 6.21672 18.6953 6.24651C18.2528 5.92873 18.1176 5.46199 17.8472 5.47192L17.6137 4.97538L17.6997 5.174C17.5891 5.174 17.0974 4.79663 16.9745 4.73705C16.4337 4.3994 16.2985 4.22065 16.1018 3.95252C16.1387 4.06176 16.237 4.31995 15.8314 4.03196C16.0281 3.87307 15.0816 3.35668 15.18 3.27723C15.0202 3.15806 14.7744 2.89986 14.6883 2.95945L14.8235 2.87007C14.6269 2.98924 14.0246 2.57215 13.5206 2.29409C13.8279 2.14513 12.9675 1.98624 12.9183 1.65852C12.6971 1.7479 11.9473 1.22157 11.7507 1.31095C11.3327 1.12226 11.4679 1.0031 11.3942 0.893858L11.1607 0.864065C11.0009 0.685313 10.1528 0.357599 9.62423 0.158984L9.05882 0.188777L8.88674 0.0795388C8.78841 0.0994002 8.34591 0.0497466 8.60403 0.158984C8.5057 0.139123 8.41966 0.119262 8.32133 0.109331C8.25987 0.288084 7.90342 0.0894695 7.31343 0.178846C7.17822 0.149054 7.2028 0.109331 7.33801 0.0894695C7.04301 0.0894695 7.16593 9.30391e-05 6.98156 -0.0495605C7.17822 -0.0396298 5.96136 0.37746 6.76031 0.357599C6.82177 0.417183 6.40386 0.526421 6.12115 0.556213C6.0474 0.51649 5.97366 0.486698 5.89991 0.446975L5.65408 0.705174C5.28533 0.873996 5.05179 0.854135 4.7568 1.01303C5.0395 0.844204 5.27304 0.37746 4.42493 0.844204C4.81826 0.566144 5.0395 0.407252 5.26075 0.258292C5.06409 0.327807 4.95346 0.357599 5.22387 0.178846C4.52326 0.556213 5.00263 0.347668 4.36347 0.734966C4.30201 0.605867 4.04389 0.65552 3.50307 1.03289L3.97014 0.814412C3.97014 0.814412 3.94556 0.873996 3.93327 0.893858C4.09306 0.79455 4.16681 0.79455 4.22826 0.814412C4.08077 0.883927 3.71202 1.43012 3.56452 1.44998C4.21597 1.13219 2.92537 2.3636 3.35557 2.14513C3.35557 2.22457 3.08516 2.55229 2.99912 2.55229C3.19578 2.08554 2.60579 2.78069 2.55662 2.67146C2.49517 2.85021 2.88849 2.3934 2.80245 2.63173C2.64266 2.88 2.42142 3.02896 2.2985 3.14813L2.32308 3.02896L2.02809 3.40633C2.07726 3.49571 2.37225 3.06868 2.21246 3.44605C2.11413 3.5255 1.97892 3.9128 1.92976 3.883C1.90517 3.67446 1.68393 3.7539 1.83143 3.42619C1.69622 3.69432 1.35206 4.54836 1.64705 4.25044C1.59789 4.35968 1.56101 4.45898 1.51185 4.56822C1.64705 4.37954 2.02809 3.87307 1.76997 4.50864H1.73309L1.69622 4.96545L1.53643 5.13427C1.53643 5.13427 1.5856 5.21372 1.53643 5.37261C1.47497 5.4024 1.40122 5.55136 1.33977 5.5315C1.20456 6.00818 1.30289 5.98832 1.33977 6.05783C1.27831 6.32596 1.22914 6.41534 1.15539 6.27631C1.04477 6.63381 0.909564 7.27931 0.786649 7.51765C0.774358 8.01418 0.835815 7.41834 0.897273 7.72619C0.503945 8.11349 0.516237 9.33497 0.479362 10.1394C0.762066 9.94074 0.479362 10.3578 0.7129 10.5167C0.639151 10.338 0.454779 11.2615 0.430196 10.5564V10.9835C0.258115 11.2715 0.368739 10.2685 0.135201 10.7054C0.110618 11.192 0.368739 11.5197 0.245824 12.0758C0.0614516 11.8772 0.29499 12.5128 0.0860346 12.3638C0.0245772 12.2447 0.0491602 12.0858 0.0368687 11.9269L-5.76675e-06 12.0262C-0.0983376 13.0788 0.208949 12.334 0.307281 12.8902C0.307281 13.5257 0.147492 13.3867 0.0614517 13.4264C0.0245772 13.5257 0.0491602 13.8435 0.0983261 14.0123C-0.0122973 13.625 0.221241 13.2874 0.344156 13.4761C0.122909 13.7541 0.319573 14.4195 0.393322 14.5982C0.62686 13.6846 0.417905 13.9627 0.663734 13.1186C0.602277 12.9994 0.405613 13.0193 0.503945 12.5029C0.589985 12.8306 0.614568 12.483 0.651443 12.3936C0.54082 12.4929 0.614568 12.0361 0.577694 11.8772C0.676026 11.7382 0.811232 12.195 0.884981 11.6786L0.639151 11.5694C0.688317 11.3708 0.823524 11.6588 0.786649 11.2317C0.909564 11.4701 0.995604 11.1721 0.995604 11.7581C1.26602 11.0728 0.946438 10.6855 0.909564 10.1394C0.909564 10.1989 0.95873 10.2089 0.95873 10.2585C0.909564 10.1394 0.934147 9.93081 0.934147 9.77192C1.03248 9.42434 1.02019 10.0599 1.10623 9.97053L1.16769 9.39455L1.19227 9.38462C1.16769 9.22573 1.17998 9.0867 1.24143 9.03705C1.30289 9.2158 1.37664 9.28531 1.42581 9.41441L1.32747 8.79871C1.40122 8.86822 1.54872 8.32203 1.54872 8.74905C1.5856 8.45113 1.61018 8.15321 1.65934 7.85529L1.84372 7.80564C1.84372 7.58716 1.81913 7.57723 1.74538 7.8255C1.83143 7.52758 1.73309 6.44513 2.04038 6.6636C2.07726 5.95852 2.18788 5.72019 2.40913 4.88601C2.33538 5.54143 2.86391 4.23058 2.69183 4.89594C2.90078 4.53843 2.77787 4.41926 2.88849 4.11141C3.08516 3.85321 3.18349 4.03196 3.10974 4.34975C3.13432 4.23058 3.15891 4.10148 3.19578 3.98231L3.22036 4.00217L3.29411 3.67446C3.55223 3.3964 3.47848 3.66453 3.69973 3.36661L3.6014 3.24744L3.82265 3.07862C3.71202 3.12827 3.79806 2.92965 3.97014 2.72111L3.99473 2.74097L4.1791 2.47284C4.04389 2.7509 4.41264 2.27423 4.40035 2.44305C4.6093 2.25437 4.59701 2.2345 4.96575 1.91672H4.83055C5.32221 1.46984 4.95346 1.97631 5.39596 1.70818L5.29762 1.64859C6.0597 1.42019 6.51448 1.07261 7.16593 1.14213C6.82177 1.20171 6.93239 1.30102 6.93239 1.27122C7.43634 1.17192 8.28445 1.28116 8.87444 1.31095C9.02194 1.49963 9.05882 1.53935 9.56277 1.77769C9.9561 1.90679 10.0176 1.92665 10.1896 1.89686C10.5338 2.08554 11.2713 2.35367 11.2098 2.45298C11.345 2.42319 11.5171 2.63173 11.7629 2.68139V2.74097L11.8121 2.64166C12.2792 3.16799 12.9552 3.14813 13.41 3.70425L13.2871 3.6546L13.5698 3.79363C13.5698 3.85321 13.4469 3.80356 13.3977 3.84328C13.7787 4.10148 14.1475 4.37954 14.5162 4.66753L14.3564 4.44905C14.6023 4.61788 14.8358 4.66753 15.0571 4.9158C14.4917 4.68739 15.4135 5.20379 15.3889 5.34282L15.1185 5.18393C15.3398 5.34944 15.4668 5.39909 15.4996 5.33289C15.942 5.64074 15.6102 5.69039 16.0895 5.92873L15.8314 5.71026C15.8068 5.60102 16.065 5.71026 16.2493 5.85922C16.2739 5.90887 16.36 6.03797 16.2125 5.93866C16.5689 6.177 16.9868 6.61395 17.1589 6.71326C17.2941 6.88208 17.1835 6.88208 17.0606 6.8225C17.7981 7.34882 17.3433 7.10056 18.0685 7.63681L18.007 7.66661L18.2897 7.8255L18.4987 8.19293L18.4495 8.04397C18.6708 8.23266 18.8305 8.33196 19.0518 8.59016L18.8797 8.55044C19.5066 9.0867 19.4205 9.29524 20.072 9.76199C20.0966 9.81164 19.9859 9.74213 19.9245 9.7024C20.5514 10.1294 20.158 10.1791 20.8095 10.5962C20.748 10.5862 20.7726 10.6558 20.7357 10.6558L21.0184 10.8544L20.8955 10.904L21.2397 10.9934L21.2643 11.2119L21.3995 11.2715C21.424 11.6488 21.9157 11.917 22.0755 12.3539L22.1615 12.2149C23.2555 12.9299 23.8086 14.34 24.8657 15.3629L24.7305 15.4026C24.8288 15.4721 24.878 15.5119 25.0009 15.6112L25.3696 15.9389C25.6154 16.4056 25.0869 15.7701 25.1361 15.929C25.8613 16.7135 25.554 16.1474 26.3038 17.0313C26.6356 17.5973 26.1317 16.9618 25.9227 16.7731C26.3898 17.2994 26.9675 17.9846 27.4346 18.5705C27.7665 18.2031 28.0492 17.9052 28.2704 17.7165C28.2704 17.6768 28.3073 17.6172 28.2704 17.637C28.7744 17.0114 29.4627 16.3758 30.0281 15.7899C30.065 15.8396 29.9298 15.9885 29.7945 16.1474C30.0035 15.9389 30.3477 15.6509 30.3722 15.5516L30.3231 15.7502C30.6181 15.4821 31.0729 14.8962 31.2572 14.9061C31.1835 14.9061 31.122 14.8465 31.3679 14.6082C31.6629 14.5883 31.9701 13.923 32.4618 13.6052C32.4618 13.6747 32.1668 13.9528 32.2528 13.8832C32.4987 13.7243 32.597 13.5059 32.7322 13.3073V13.4066L33.6049 12.483C33.8999 12.4731 34.4899 11.6687 34.5391 11.8077C34.8955 11.5098 34.1826 12.0063 34.6005 11.619C34.7849 11.5694 34.9693 11.2516 35.0553 11.3509L35.0184 11.4006L35.3257 11.1324L35.2274 11.3708C35.4732 11.1324 35.5715 10.8842 35.5101 10.8146C35.8174 10.6458 36.1492 10.3181 36.3459 10.2883L36.2722 10.3876C36.9605 9.76199 37.7471 9.65275 38.1773 9.06684C38.2388 9.04698 38.2511 9.06684 38.1528 9.13635L38.6321 8.79871L38.583 8.93774L39.2467 8.28231L39.2836 8.33196C39.8244 7.99432 40.6111 7.41834 41.2994 6.99132L41.2133 7.08069C41.9017 6.5345 41.9877 6.6934 42.5039 6.32596C42.5039 6.34582 42.4794 6.36568 42.4548 6.37561C42.6269 6.28624 42.7867 6.177 42.9587 6.09755L42.885 6.19686C43.1923 5.90887 44.0773 5.79963 43.77 5.82942C43.9543 5.67053 44.2985 5.46199 44.3231 5.38254C44.9008 5.1442 44.5075 5.38254 44.8885 5.29317C45.3064 5.13427 45.331 5.05483 45.921 4.9158V4.97538C46.1914 4.86614 46.3266 4.83635 46.683 4.74698L46.5847 4.79663C47.1624 4.53843 47.2976 4.88601 47.7155 4.58808C47.9491 4.61788 48.3301 4.6576 48.2932 4.75691C48.6128 4.71718 48.8218 4.84628 49.1045 4.86614C49.338 4.96545 49.5838 5.05483 49.842 5.21372C49.7559 5.41233 49.9403 5.29317 50.1247 5.60102L50.1984 5.52157C50.8253 6.14721 51.1203 7.17007 51.4521 8.183L51.3415 8.23266L51.5382 8.40148C51.7226 8.92781 51.7594 9.62296 51.8946 10.2486C51.993 10.8842 52.0053 11.5098 52.0667 11.9765C52.1773 12.2745 52.3371 12.7511 52.3125 13.2576L52.288 13.2079C52.3371 13.6449 52.3863 14.0918 52.4109 14.5486C52.4109 14.9955 52.374 15.4324 52.3248 15.8793C52.2757 15.8197 52.2388 15.9091 52.2142 15.7999C52.3371 16.0183 52.1405 16.3262 52.1159 16.5149L52.2388 16.2964C52.3125 16.5645 52.1405 16.922 52.0298 17.0313C52.0544 17.1703 52.0544 17.3093 52.0667 17.4484C52.0421 17.4682 52.0176 17.5079 51.993 17.5079L52.0421 17.5874L51.8332 17.7761C51.8332 17.8754 51.7594 18.4116 51.8332 18.6103C51.7717 18.64 51.5874 18.9976 51.6734 18.7096C51.4767 19.1862 51.3046 19.6629 51.0465 20.1297L51.2063 19.9211C51.3292 19.9211 51.2063 20.3779 51.0588 20.5765C51.0957 20.2588 50.9113 20.507 50.7638 20.5964C50.7392 20.8049 50.9359 20.4574 50.9605 20.5865C50.9359 20.8546 50.6778 21.371 50.5549 21.4802L50.5917 21.3213C50.4442 21.659 50.1861 21.7384 50.0018 22.0562C49.9034 22.374 49.6945 22.5428 49.9157 22.5627C49.6945 22.9798 49.6945 22.662 49.5838 22.7911C49.5593 23.0195 49.1045 23.5458 48.957 23.5756C49.0676 23.9232 48.0843 24.5786 48.2195 24.7673L47.8384 25.0156C47.8384 25.0156 47.9614 25.1844 47.777 25.4625C47.5189 25.671 47.4574 25.5518 47.3345 25.5915L47.4082 25.8696C46.007 27.101 44.3722 28.8786 42.6146 30.0802C41.9508 30.7059 41.115 31.5003 40.2054 32.1359L40.2792 32.0465C39.9719 32.2451 39.6769 32.4537 39.3573 32.6523L40.0702 32.2551C39.8981 32.414 39.7875 32.553 39.5909 32.692C38.5461 33.3276 37.1449 34.1618 35.9526 35.0555C35.3134 35.7606 35.252 35.2343 34.5882 35.8599C34.6374 35.8003 34.6374 35.7606 34.6866 35.701C33.8876 36.2869 33.4451 36.6047 32.6708 37.2204C32.597 36.9721 32.1054 37.5481 32.0931 37.4091V37.5283C31.8472 37.5978 31.3679 37.8361 31.3924 37.7368L31.0852 38.0546L30.9868 37.995C30.4583 38.283 29.3766 38.9484 28.971 38.9186C28.676 39.1172 28.3196 39.3257 27.9262 39.5343C27.8033 39.6038 27.6681 39.6832 27.5206 39.7627L27.41 39.713L27.0044 39.5045C26.5619 39.2661 26.1194 39.0278 25.7015 38.8093C25.4188 38.7597 24.9271 38.5114 24.5584 38.3128L24.2388 38.0049C23.8455 37.8262 23.3292 37.7269 23.0465 37.4687C23.0465 37.4588 23.0834 37.4588 23.108 37.4687C22.7147 37.2701 22.3951 37.0218 21.9649 36.9026C21.5593 36.6544 21.2028 36.3763 21.4118 36.3564C21.2274 36.4955 20.5759 35.8103 20.5759 35.8103C20.5759 35.8103 19.2976 35.0059 17.3802 33.6752C15.475 32.3444 12.9675 30.4576 10.6075 28.2728C8.25987 26.098 6.08428 23.6253 4.70763 21.3114C3.24495 19.0174 2.65495 16.9121 2.21246 15.7105C2.08955 15.5516 1.97892 15.0948 1.85601 15.2735C1.79455 14.916 1.99121 14.7472 1.8683 14.6777C1.81913 15.1643 1.54872 14.5287 1.42581 15.0153L1.37664 14.6976C1.2906 14.638 1.49956 15.1246 1.33977 15.0451L1.5733 15.1246C1.54872 15.3728 1.51185 15.5218 1.4381 15.6112C1.53643 15.8495 1.83143 15.9786 1.80684 16.5447L1.76997 16.3957C1.85601 16.8525 1.67164 16.6936 1.64705 16.7929V16.6936L1.5856 17.0909C1.61018 16.7929 1.35206 16.3163 1.40122 16.5745C1.42581 17.1306 1.42581 16.4255 1.52414 16.8327C1.5733 17.0909 1.45039 17.0313 1.37664 17.0313C1.41351 17.1902 1.42581 17.3391 1.47497 17.498C1.36435 17.498 1.41351 17.1902 1.33977 17.3987L1.59789 17.9648C1.37664 18.1137 1.88059 18.5705 1.73309 18.8784C1.53643 18.4812 1.65934 18.938 1.56101 18.8784L1.94205 19.8913C1.94205 20.0006 1.76997 19.6431 1.83143 19.792C1.83143 20.0006 2.00351 20.0899 2.05267 20.1892C2.02809 20.2985 2.39683 20.9241 2.22475 20.9539C2.43371 21.659 2.54433 21.1724 2.79016 21.8179C2.74099 21.937 2.49517 21.3412 2.54433 21.6491L2.93766 22.2747C2.86391 22.235 2.71641 22.2052 2.60579 21.9668C3.42932 23.7246 3.61369 24.8567 4.91659 26.2569C4.97804 26.5151 4.71992 26.1477 4.53555 26.0384C5.53116 27.0216 5.56804 27.6373 6.39157 28.4913L6.4899 28.4516C7.37488 29.8121 9.00965 31.0733 10.3986 32.3444L10.2757 32.1558C10.5461 32.265 10.878 32.5331 11.1607 32.692C11.1607 32.7516 10.8288 32.6821 11.2959 32.9999C11.2344 32.9105 11.0746 32.7417 11.1607 32.7516C12.2423 33.9433 15.1062 35.9592 17.3679 37.4885C18.8305 38.3724 20.3424 39.2959 21.8911 40.1698C22.6655 40.6167 23.4399 41.0437 24.2265 41.4608C24.6198 41.6694 25.0132 41.868 25.4065 42.0666C26.0088 42.3645 26.7586 42.7121 27.496 43.0398C28.0369 42.7915 28.6269 42.5234 29.0816 42.295C28.1967 42.722 28.5285 42.3347 29.1554 42.0865C29.3643 42.0269 29.5487 41.9772 29.7208 41.9276C29.856 41.8879 29.9912 41.8382 30.1141 41.7886C30.36 41.6793 30.5812 41.5601 30.8025 41.431C31.2327 41.1728 31.6629 40.9047 32.2651 40.716C34.0843 39.6038 35.9526 38.8788 37.4399 37.6176L37.5505 37.6772C37.8332 37.5581 37.8455 37.4588 38.1036 37.2899V37.3197C38.7673 36.9523 39.4311 36.3862 39.8121 36.1876L39.7507 36.0883C40.0948 35.84 40.0088 36.0287 40.3161 35.7308L40.3529 35.7805L40.6971 35.4031C40.82 35.5819 41.705 34.708 42.0492 34.5689C42.4671 34.2114 43.2414 33.5262 43.9298 33.0197C44.151 32.9999 44.9377 32.3444 45.4908 31.9571C46.4372 31.113 47.7647 29.8816 48.9078 28.7495L48.7603 28.6899L49.043 28.3821C49.043 28.3821 49.1168 28.3722 49.0922 28.4218C49.4609 28.2828 49.6945 27.6869 50.014 27.4883C49.7559 27.5777 49.8051 27.6969 49.633 27.8657C49.3503 28.0842 49.4363 27.7664 49.8051 27.4685L49.8297 27.4883L49.9772 27.2202C50.1001 27.25 50.3336 27.0613 50.4565 27.0911C51.3046 26.0186 51.7103 25.2142 52.5215 24.0821C52.5584 24.2509 53.0377 23.228 53.0992 23.5558C53.4679 22.8209 52.8534 23.6054 52.9148 23.2181C53.0377 23.0195 53.0869 22.7812 53.1975 22.7812C53.1975 22.9003 53.4188 22.662 53.345 22.8407L53.6032 22.3541C53.6032 22.3541 53.6154 22.4336 53.6032 22.4932C53.8244 21.9867 54.0702 21.5398 54.3038 21.1128C54.5619 20.6858 54.7586 20.2588 54.8569 19.7722C54.7954 19.6828 54.6971 20.1396 54.6356 20.0502C54.82 19.0671 55.115 19.2558 55.2256 18.3223L55.2871 18.5308C55.2871 18.223 55.2256 18.0839 55.4346 17.6172C55.6067 17.5576 55.4346 18.0442 55.4346 18.2925C55.5575 17.9648 55.6681 17.1008 55.496 17.3491C55.5206 16.9419 55.6681 16.8029 55.7419 16.5943C55.705 16.5943 55.5821 16.9618 55.5575 16.7234C55.7542 16.1872 55.7542 15.3133 55.8033 14.638C55.8402 14.638 55.8894 14.5982 55.9017 14.6578C55.705 14.1414 56.0123 14.1911 55.9508 13.4761L55.9877 13.4066Z" fill="#FF2020"/>
<path d="M27.8648 14.8167L27.9385 14.767C27.9385 14.767 27.9139 14.6975 27.9385 14.6379L27.8648 14.8167Z" fill="#FF2020"/>
<path d="M37.4521 6.65366C37.4521 6.65366 37.5013 6.59408 37.5136 6.57422C37.4644 6.61394 37.4521 6.64373 37.4521 6.65366Z" fill="#FF2020"/>
<path d="M40.2177 4.63762C40.0088 4.77665 40.23 4.69721 40.3652 4.65748C40.3652 4.63762 40.3284 4.61776 40.2177 4.63762Z" fill="#FF2020"/>
<path d="M24.1896 11.5892C24.1896 11.5892 24.2634 11.6289 24.288 11.6091C24.2265 11.5694 24.2019 11.5694 24.1896 11.5892Z" fill="#FF2020"/>
<path d="M5.72781 0.178797C5.72781 0.178797 5.78927 0.168866 5.83844 0.158936C5.81385 0.158936 5.77698 0.158936 5.72781 0.178797Z" fill="#FF2020"/>
<path d="M7.30115 0.139081C7.3749 0.139081 7.47323 0.139081 7.60843 0.12915C7.47323 0.12915 7.3749 0.12915 7.30115 0.139081Z" fill="#FF2020"/>
<path d="M27.1519 14.9457C27.1519 14.9457 27.2133 14.9954 27.2379 14.9854C27.2011 14.9457 27.1765 14.9358 27.1519 14.9457Z" fill="#FF2020"/>
<path d="M7.9157 0.109375L8.28445 0.159029C8.28445 0.159029 8.28445 0.149098 8.28445 0.139167L7.90341 0.109375H7.9157Z" fill="#FF2020"/>
<path d="M5.23618 0.317985C5.38367 0.268332 5.59263 0.208747 5.71554 0.178955C5.51888 0.208747 5.35909 0.258401 5.23618 0.317985Z" fill="#FF2020"/>
<path d="M18.683 6.27637L18.7076 6.29623C18.9166 6.4154 18.7937 6.33595 18.683 6.27637Z" fill="#FF2020"/>
<path d="M9.56277 0.19873L9.59965 0.218592L9.72256 0.208661L9.56277 0.19873Z" fill="#FF2020"/>
<path d="M3.78577 1.0727C3.78577 1.0727 3.8841 0.983326 3.90868 0.943604C3.85952 0.973396 3.81035 1.01312 3.7366 1.06277C3.76119 1.06277 3.77348 1.06277 3.78577 1.06277V1.0727Z" fill="#FF2020"/>
<path d="M15.3521 3.3169C15.2414 3.29704 15.1923 3.29704 15.18 3.3169C15.266 3.37648 15.3275 3.39634 15.3521 3.3169Z" fill="#FF2020"/>
</g>
<defs>
<clipPath id="clip0_7_9614">
<rect width="56" height="43" fill="white"/>
</clipPath>
</defs>
</svg>
